<?xml version="1.0" encoding="UTF-8" standalone="no"?>
<svg
   viewBox="0 0 900 514.28601"
   version="1.1"
   id="svg4"
   sodipodi:docname="US.svg"
   width="900"
   height="514.28601"
   inkscape:version="1.3.2 (091e20ef0f, 2023-11-25, custom)"
   xmlns:inkscape="http://www.inkscape.org/namespaces/inkscape"
   xmlns:sodipodi="http://sodipodi.sourceforge.net/DTD/sodipodi-0.dtd"
   xmlns="http://www.w3.org/2000/svg"
   xmlns:svg="http://www.w3.org/2000/svg">
  <defs
     id="defs4" />
  <sodipodi:namedview
     id="namedview4"
     pagecolor="#505050"
     bordercolor="#eeeeee"
     borderopacity="1"
     inkscape:showpageshadow="0"
     inkscape:pageopacity="0"
     inkscape:pagecheckerboard="0"
     inkscape:deskcolor="#505050"
     inkscape:zoom="0.30602112"
     inkscape:cx="714.00301"
     inkscape:cy="161.75354"
     inkscape:window-width="1366"
     inkscape:window-height="718"
     inkscape:window-x="0"
     inkscape:window-y="24"
     inkscape:window-maximized="1"
     inkscape:current-layer="svg4" />
  <path
     fill="#ffffff"
     d="M 0,0 H 900 V 514.286 H 0 Z"
     id="path1"
     style="stroke-width:1.62424" />
  <g
     fill="#d80027"
     id="g2"
     transform="scale(1.754386,1.5037602)">
    <path
       d="M 0,0 H 513 V 26.3 H 0 Z M 0,52.6 H 513 V 78.9 H 0 Z m 0,52.6 h 513 v 26.3 H 0 Z m 0,52.6 h 513 v 26.3 H 0 Z m 0,52.7 h 513 v 26.3 H 0 Z m 0,52.6 h 513 v 26.3 H 0 Z m 0,52.6 H 513 V 342 H 0 Z"
       id="path2" />
  </g>
  <path
     fill="#2e52b2"
     d="M 0,0 H 385.67052 V 276.81069 H 0 Z"
     id="path3"
     style="stroke-width:1.50359" />
  <g
     fill="#ffffff"
     id="g4"
     transform="scale(1.5035888)">
    <path
       d="m 47.8,138.9 -4,-12.8 -4.4,12.8 H 26.2 l 10.7,7.7 -4,12.8 10.9,-7.9 10.6,7.9 -4.1,-12.8 10.9,-7.7 z m 56.3,0 -4.1,-12.8 -4.2,12.8 H 82.6 l 10.7,7.7 -4,12.8 10.7,-7.9 10.8,7.9 -4,-12.8 10.7,-7.7 z m 56.5,0 -4.3,-12.8 -4,12.8 h -13.5 l 11,7.7 -4.2,12.8 10.7,-7.9 11,7.9 -4.2,-12.8 10.7,-7.7 z m 56.2,0 -4,-12.8 -4.2,12.8 h -13.3 l 10.8,7.7 -4,12.8 10.7,-7.9 10.8,7.9 -4.3,-12.8 11,-7.7 z M 100,75.3 95.8,88.1 H 82.6 l 10.7,7.9 -4,12.6 10.7,-7.8 10.8,7.8 -4,-12.6 10.7,-7.9 h -13.4 z m -56.2,0 -4.4,12.8 H 26.2 l 10.7,7.9 -4,12.6 10.9,-7.8 10.6,7.8 L 50.3,96 61.2,88.1 H 47.8 Z m 112.5,0 -4,12.8 h -13.5 l 11,7.9 -4.2,12.6 10.7,-7.8 11,7.8 -4.2,-12.6 10.7,-7.9 h -13.2 z m 56.5,0 -4.2,12.8 h -13.3 l 10.8,7.9 -4,12.6 10.7,-7.8 10.8,7.8 -4.3,-12.6 11,-7.9 H 216.8 Z M 43.8,24.7 39.4,37.3 H 26.2 l 10.7,7.9 -4,12.7 L 43.8,50 54.4,57.9 50.3,45.2 61.2,37.3 H 47.8 Z m 56.2,0 -4.2,12.6 H 82.6 l 10.7,7.9 -4,12.7 10.7,-7.9 10.8,7.9 -4,-12.7 10.7,-7.9 h -13.4 z m 56.3,0 -4,12.6 h -13.5 l 11,7.9 -4.2,12.7 10.7,-7.9 11,7.9 -4.2,-12.7 10.7,-7.9 h -13.2 z m 56.5,0 -4.2,12.6 h -13.3 l 10.8,7.9 -4,12.7 10.7,-7.9 10.8,7.9 -4.3,-12.7 11,-7.9 h -13.5 z"
       id="path4" />
  </g>
</svg>
