<?xml version="1.0" encoding="UTF-8" standalone="no"?>
<!-- Created with Inkscape (http://www.inkscape.org/) -->

<svg
   width="512"
   height="512"
   viewBox="0 0 512 512.00002"
   version="1.1"
   id="svg1"
   sodipodi:docname="howitworks-step-3.svg"
   inkscape:version="1.3.2 (1:1.3.2+202311252150+091e20ef0f)"
   xmlns:inkscape="http://www.inkscape.org/namespaces/inkscape"
   xmlns:sodipodi="http://sodipodi.sourceforge.net/DTD/sodipodi-0.dtd"
   xmlns:xlink="http://www.w3.org/1999/xlink"
   xmlns="http://www.w3.org/2000/svg"
   xmlns:svg="http://www.w3.org/2000/svg">
  <sodipodi:namedview
     id="namedview1"
     pagecolor="#505050"
     bordercolor="#eeeeee"
     borderopacity="1"
     inkscape:showpageshadow="0"
     inkscape:pageopacity="0"
     inkscape:pagecheckerboard="0"
     inkscape:deskcolor="#505050"
     inkscape:zoom="0.4609375"
     inkscape:cx="256"
     inkscape:cy="256"
     inkscape:window-width="1366"
     inkscape:window-height="707"
     inkscape:window-x="0"
     inkscape:window-y="30"
     inkscape:window-maximized="1"
     inkscape:current-layer="svg1" />
  <defs
     id="defs1">
    <radialGradient
       id="radial-gradient-65"
       cx="-1377.46"
       cy="286.01001"
       fx="-1377.46"
       fy="286.01001"
       r="129.03"
       gradientTransform="rotate(41.47,37.083071,3158.2989)"
       xlink:href="#radial-gradient" />
    <radialGradient
       id="radial-gradient"
       cx="-5151.6001"
       cy="-400.47"
       fx="-5151.6001"
       fy="-400.47"
       r="336.48001"
       gradientTransform="matrix(0.92847652,0.05321045,-0.06703302,0.8575695,5039.41,708.76)"
       gradientUnits="userSpaceOnUse">
      <stop
         offset="0"
         stop-color="#fdab47"
         id="stop1" />
      <stop
         offset="1"
         stop-color="#fa594d"
         id="stop2" />
    </radialGradient>
    <radialGradient
       id="radial-gradient-66"
       cx="657.59998"
       cy="-381.76999"
       fx="657.59998"
       fy="-381.76999"
       r="28.92"
       gradientTransform="matrix(0.90700475,0.07377256,-0.0713405,0.87710349,156.45,421.96)"
       xlink:href="#radial-gradient" />
    <radialGradient
       id="radialGradient4"
       cx="-5151.6001"
       cy="-400.47"
       fx="-5151.6001"
       fy="-400.47"
       r="336.48001"
       gradientTransform="matrix(0.92847652,0.05321045,-0.06703302,0.8575695,5039.41,708.76)"
       gradientUnits="userSpaceOnUse">
      <stop
         offset="0"
         stop-color="#fdab47"
         id="stop3" />
      <stop
         offset="1"
         stop-color="#fa594d"
         id="stop4" />
    </radialGradient>
  </defs>
  <g
     id="layer1"
     transform="matrix(0.86298828,0,0,0.86298828,35.07496,35.074998)"
     style="stroke-width:1.15876">
    <g
       id="g2242"
       transform="matrix(4.2553915,0,0,4.2553915,-3257.9886,-189.33174)"
       style="stroke-width:0.0720473">
      <path
         class="cls-116"
         d="m 779.47,114.7 c 0,0 -9.4,14.28 -8.22,27.12 0.78,8.49 -6.78,0.94 -5.38,-11.13 0.83,-7.17 7.03,-11.2 13.6,-15.98 z"
         id="path2100"
         style="fill:#ffc75a;stroke-width:0.0720473" />
      <path
         class="cls-179"
         d="m 874.66,151.16 c -4.72,8.01 -12.44,12.63 -16.58,9.41 -4.13,-3.23 -1.99,-10.65 5.66,-14.97 6.61,-3.74 12.92,-13.48 15.18,-11.76 2.22,1.77 0.48,9.3 -4.25,17.32 z"
         id="path2101"
         style="opacity:0.95;fill:url(#radial-gradient-65);stroke-width:0.0720473" />
      <path
         class="cls-116"
         d="m 773.15,109.81 c 0,0.99 -0.81,1.8 -1.8,1.8 -0.99,0 -1.8,-0.81 -1.8,-1.8 0,-0.99 0.81,-1.8 1.8,-1.8 0.99,0 1.8,0.81 1.8,1.8 z"
         id="path2102"
         style="fill:#ffc75a;stroke-width:0.0720473" />
      <path
         class="cls-116"
         d="m 776.12,149.58 c 0,1.35 -1.1,2.45 -2.45,2.45 -1.35,0 -2.45,-1.1 -2.45,-2.45 0,-1.35 1.1,-2.45 2.45,-2.45 1.35,0 2.45,1.1 2.45,2.45 z"
         id="path2103"
         style="fill:#ffc75a;stroke-width:0.0720473" />
      <path
         class="cls-116"
         d="m 880.99,123.62 c -1.49,0 -2.7,1.21 -2.7,2.7 0,1.49 1.21,2.7 2.7,2.7 1.49,0 2.7,-1.21 2.7,-2.7 0,-1.49 -1.21,-2.7 -2.7,-2.7 z"
         id="path2104"
         style="fill:#ffc75a;stroke-width:0.0720473" />
      <g
         id="g2206"
         style="stroke-width:0.0720473">
        <path
           class="cls-116"
           d="m 878.02,108.83 c 5.43,47.81 -75.65,56.86 -91.24,47.41 -15.59,-9.45 -14.25,-22.22 -3.97,-37.88 10.27,-15.66 5.41,-17.63 1.56,-26.05 0,0 -9.86,-21.84 17.66,-41.85 26.63,-19.36 70.56,10.56 75.99,58.37 z"
           id="path2105"
           style="fill:#ffc75a;stroke-width:0.0720473" />
        <g
           id="g2116"
           style="stroke-width:0.0720473">
          <g
             id="g2107"
             style="stroke-width:0.0720473">
            <path
               class="cls-273"
               d="m 797.02,149.07 c 0,0 -2.78,-9.94 -4.95,-7.9 -2.17,2.04 0.64,5.29 4.95,7.9 z"
               id="path2106"
               style="fill:#2a63a0;stroke-width:0.0720473" />
            <path
               class="cls-228"
               d="m 797.15,148.9 c 0,0 -9.28,-6.97 -11.53,-2.21 -2.25,4.76 11.53,2.21 11.53,2.21 z"
               id="path2107"
               style="fill:#3369b2;stroke-width:0.0720473" />
          </g>
          <g
             id="g2115"
             style="stroke-width:0.0720473">
            <g
               id="g2111"
               style="stroke-width:0.0720473">
              <path
                 class="cls-243"
                 d="m 818.02,158.57 c 0,0 10.81,0.28 19.95,-19.76 0.27,-0.59 -2.22,-3.3 -2.22,-3.3 l -3.87,-4.71 c -2.73,-3.32 -7.54,-4.06 -11.14,-1.71 l -1.82,1.19 c -0.14,0.09 -0.28,0.16 -0.42,0.23 -0.87,0.38 -1.88,0.3 -2.69,-0.22 -5.57,-3.6 -12.93,0.34 -13.03,6.98 v 0.89 c -0.03,1.57 -1.32,2.83 -2.89,2.81 l -2.34,-0.03 c -1.37,-0.02 -2.48,0.92 -2.8,2.14 -0.12,0.44 -0.13,0.92 -0.01,1.4 l 0.45,1.83 c 0.11,0.45 0.11,0.9 0.01,1.31 -0.02,0.07 -0.04,0.15 -0.06,0.22 -0.2,0.63 -0.61,1.17 -1.15,1.53 -0.14,0.1 -0.29,0.18 -0.45,0.25 -0.49,0.21 -1.05,0.3 -1.63,0.19 -1.32,-0.24 -2.61,0.53 -3.1,1.77 0,0 -0.92,4.03 -0.59,5.33 0.76,2.98 15.63,4.99 29.8,1.69 z"
                 id="path2108"
                 style="fill:#6a96df;stroke-width:0.0720473" />
              <path
                 class="cls-273"
                 d="m 826.08,134.14 c 0.46,1.06 1.69,1.55 2.75,1.09 1.06,-0.46 1.55,-1.69 1.09,-2.75 -0.46,-1.06 -1.69,-1.55 -2.75,-1.09 -1.06,0.46 -1.55,1.69 -1.09,2.75 z"
                 id="path2109"
                 style="fill:#2a63a0;stroke-width:0.0720473" />
              <path
                 class="cls-273"
                 d="m 793.77,153.15 c 0.46,1.06 1.69,1.55 2.75,1.09 1.06,-0.46 1.55,-1.69 1.09,-2.75 -0.46,-1.06 -1.69,-1.55 -2.75,-1.09 -1.06,0.46 -1.55,1.69 -1.09,2.75 z"
                 id="path2110"
                 style="fill:#2a63a0;stroke-width:0.0720473" />
              <path
                 class="cls-228"
                 d="m 805.51,136.9 c 0.77,1.77 2.82,2.58 4.59,1.81 1.77,-0.77 2.58,-2.82 1.81,-4.59 -0.77,-1.77 -2.82,-2.58 -4.59,-1.81 -1.77,0.77 -2.58,2.82 -1.81,4.59 z"
                 id="path2111"
                 style="fill:#3369b2;stroke-width:0.0720473" />
            </g>
            <g
               id="g2114"
               style="stroke-width:0.0720473">
              <path
                 class="cls-228"
                 d="m 817.76,145.87 c 0,0 2.66,-9.97 -0.24,-9.32 -2.91,0.65 -2.14,4.88 0.24,9.32 z"
                 id="path2112"
                 style="fill:#3369b2;stroke-width:0.0720473" />
              <path
                 class="cls-273"
                 d="m 817.76,145.87 c 0,0 -8.04,-8.37 -11.02,-4.03 -2.98,4.33 11.02,4.03 11.02,4.03 z"
                 id="path2113"
                 style="fill:#2a63a0;stroke-width:0.0720473" />
              <path
                 class="cls-273"
                 d="m 817.76,145.87 c 0,0 12.96,-7.6 8.57,-8.28 -4.4,-0.68 -8.57,8.28 -8.57,8.28 z"
                 id="path2114"
                 style="fill:#2a63a0;stroke-width:0.0720473" />
            </g>
          </g>
        </g>
        <circle
           class="cls-268"
           cx="802.15002"
           cy="82.889999"
           r="33.619999"
           transform="rotate(-50.31,802.17123,82.880933)"
           id="circle2116"
           style="fill:#fe573c;stroke-width:0.0720473" />
        <path
           class="cls-220"
           d="m 792.09,92.09 c 0,0 1.16,33.86 8.03,33.1 6.87,-0.76 15.41,-9.66 15.41,-9.66 l -6.5,-13.67 -3.57,4.66 -4.69,-14.95 -8.68,0.51 z"
           id="path2116"
           style="fill:#f49f90;stroke-width:0.0720473" />
        <path
           class="cls-159"
           d="m 826.62,88.03 -6.05,-1.49 c 0,0 -13.81,10.63 -13.57,15.36 0,0 3.92,15.21 8.16,14.86 4.24,-0.35 11.46,-28.73 11.46,-28.73 z"
           id="path2117"
           style="fill:#f7cca9;stroke-width:0.0720473" />
        <path
           class="cls-241"
           d="m 862.71,73.51 c -1.78,0.24 -3.53,-0.02 -5.2,-0.57 1.12,0 2.33,-0.1 3.63,-0.34 7.9,-1.47 10.91,1.14 10.91,1.14 -1.09,-1.32 -5.28,-3.4 -12.23,-2.44 -3.2,0.44 -5.56,-0.12 -7.18,-0.86 -4.14,-2.85 -6.99,-6.6 -6.99,-6.6 0,0 1.38,-4.27 -3.88,-1.69 -0.19,-0.11 -0.39,-0.19 -0.61,-0.25 -1.26,-0.31 -2.54,0.46 -2.86,1.72 -0.06,0.25 -0.08,0.5 -0.06,0.75 -6.53,5.99 2.5,21.68 3.53,33.96 1.08,12.81 9.5,8.63 19.31,8.82 9.81,0.19 -3.17,-5.27 10.2,-14.04 13.37,-8.77 0.23,-20.77 -8.57,-19.6 z"
           id="path2118"
           style="fill:#2d305e;stroke-width:0.0720473" />
        <path
           class="cls-271"
           d="m 860.67,96.61 c 0,0 -24.28,-10.42 -34.91,-9.39 -10.63,1.03 -3,28.18 8.98,25.27 11.98,-2.91 24.5,-3.62 25.93,-15.87 z"
           id="path2119"
           style="fill:#ffa896;stroke-width:0.0720473" />
        <path
           class="cls-99"
           d="m 824.75,96.26 c 1.47,0.79 2.69,1.86 3.69,3.19 0.92,1.23 1.87,2.48 3.13,3.39 1.35,0.98 2.98,1.42 4.62,1.59 4.51,0.47 8.81,-1.47 12.83,-3.25 2.11,-0.94 4.25,-1.8 6.29,-2.85 1.45,-0.75 2.92,-1.56 4.48,-2.08 0.56,0.23 0.87,0.37 0.87,0.37 -1.43,12.26 -13.94,12.97 -25.93,15.87 -8.03,1.95 -14.1,-9.59 -14.04,-17.73 1.4,0.35 2.78,0.82 4.05,1.51 z"
           id="path2120"
           style="opacity:0.15;fill:#231f20;stroke-width:0.0720473" />
        <g
           id="g2130"
           style="stroke-width:0.0720473">
          <path
             class="cls-241"
             d="m 842.14,77.9 c -0.54,2.2 -2.77,3.53 -4.96,2.99 -2.2,-0.54 -3.53,-2.77 -2.99,-4.96 0.54,-2.2 2.77,-3.53 4.96,-2.99 2.2,0.54 3.53,2.77 2.99,4.96 z"
             id="path2121"
             style="fill:#2d305e;stroke-width:0.0720473" />
          <path
             class="cls-241"
             d="m 848.63,79.25 c -0.87,3.51 -4.43,5.65 -7.94,4.78 -3.51,-0.87 -5.65,-4.43 -4.78,-7.94 0.87,-3.51 4.43,-5.65 7.94,-4.78 3.51,0.87 5.65,4.43 4.78,7.94 z"
             id="path2122"
             style="fill:#2d305e;stroke-width:0.0720473" />
          <path
             class="cls-241"
             d="m 849.07,71.43 c -0.54,2.2 -2.77,3.53 -4.96,2.99 -2.2,-0.54 -3.53,-2.77 -2.99,-4.96 0.54,-2.2 2.77,-3.53 4.96,-2.99 2.19,0.54 3.53,2.77 2.99,4.96 z"
             id="path2123"
             style="fill:#2d305e;stroke-width:0.0720473" />
          <g
             id="g2129"
             style="stroke-width:0.0720473">
            <g
               id="g2125"
               style="stroke-width:0.0720473">
              <path
                 class="cls-271"
                 d="m 840.61,78.3 c 0,0 -2.36,6.98 -3.91,8.68 -1.54,1.71 -6.31,3.5 -1.56,6.26 4.75,2.76 12.42,1.01 12.69,-0.95 0.27,-1.96 -2.64,-4.16 -2.61,-8.11 0.03,-3.95 0.8,-5.02 0.8,-5.02 l -5.42,-0.88 z"
                 id="path2124"
                 style="fill:#ffa896;stroke-width:0.0720473" />
              <path
                 class="cls-25"
                 d="m 836.7,86.98 c 1.54,-1.71 3.91,-8.68 3.91,-8.68 l 5.08,0.82 c -0.21,0.07 -0.4,0.23 -0.51,0.49 -1.17,2.71 -4.27,3.73 -6.21,5.78 -1.5,1.6 -2.99,3.98 -2.54,6.27 0.22,1.1 0.82,2 1.63,2.69 -1.03,-0.23 -2.03,-0.59 -2.92,-1.11 -4.75,-2.76 0.02,-4.56 1.56,-6.26 z"
                 id="path2125"
                 style="opacity:0.25;fill:#d66e85;stroke-width:0.0720473" />
            </g>
            <g
               id="g2128"
               style="stroke-width:0.0720473">
              <path
                 class="cls-271"
                 d="m 836.42,83.57 c 2.08,2.56 9.01,-0.19 9.59,-3.69 0.18,-1.1 0.49,-3 0.49,-3 0,0 1.65,-0.85 1.3,-2.57 -0.29,-1.33 -1.35,-0.41 -1.35,-0.41 l -0.09,-1.5 -10.57,-0.65 c 0,0 -0.12,0.77 -0.26,1.96 -0.07,0.61 -0.12,1.34 -0.18,2.12 -0.17,2.82 -0.1,6.34 1.06,7.75 z"
                 id="path2126"
                 style="fill:#ffa896;stroke-width:0.0720473" />
              <path
                 class="cls-175"
                 d="m 846.73,74.22 c 0,0 0.36,-0.43 0.56,-0.13 0.2,0.3 0.15,1.49 -0.41,1.93 0,0 0.54,-1.1 0.34,-1.45 -0.19,-0.35 -0.64,-0.02 -0.49,-0.34 z"
                 id="path2127"
                 style="fill:#ed889b;stroke-width:0.0720473" />
              <path
                 class="cls-241"
                 d="m 828.89,69.08 c -0.34,0.97 0.96,2.91 2.42,4.12 0.19,-1.28 0.6,-2.07 2.04,-2.47 0.28,-0.08 -1.27,1.16 -1.3,2.83 0.82,0.49 1.78,0.89 2.78,1.11 3.68,0.86 12.34,-2.03 12.34,-2.03 0.37,-12.28 -16.73,-8.01 -18.28,-3.56 z"
                 id="path2128"
                 style="fill:#2d305e;stroke-width:0.0720473" />
            </g>
          </g>
        </g>
        <path
           class="cls-159"
           d="m 866.3,103.79 c 0,0 0.43,14.39 -2.56,27.26 -1.15,4.96 -2.81,9.69 -5.2,13.3 -8.59,12.96 -40.45,20.24 -44.32,14.97 -0.14,-0.19 -0.27,-0.47 -0.39,-0.81 -3.09,-8.98 1.98,-67.08 5.3,-70.54 3.45,-3.6 10.65,-1.12 10.65,-1.12 -2.15,4.66 -3.54,14.07 4.36,20.26 7.9,6.19 25.29,-11.07 25.46,-11.06 5.02,0.42 6.71,7.74 6.71,7.74 z"
           id="path2130"
           style="fill:#f7cca9;stroke-width:0.0720473" />
        <path
           class="cls-256"
           d="m 835.36,75.82 c -0.14,1.24 -0.21,2.5 -0.15,3.76 0.02,0.63 0.09,1.26 0.2,1.88 0.12,0.62 0.29,1.25 0.61,1.82 0.31,0.59 0.9,1.02 1.52,1.23 0.62,0.21 1.28,0.24 1.92,0.17 1.27,-0.13 2.48,-0.59 3.54,-1.26 -0.56,0.27 -1.14,0.5 -1.74,0.67 -0.59,0.17 -1.2,0.29 -1.82,0.32 -0.61,0.02 -1.23,0 -1.79,-0.22 -0.56,-0.2 -1.04,-0.56 -1.32,-1.09 -0.29,-0.52 -0.46,-1.11 -0.59,-1.71 -0.13,-0.6 -0.2,-1.22 -0.26,-1.84 -0.06,-0.62 -0.08,-1.24 -0.09,-1.86 -0.02,-0.62 -0.02,-1.25 -0.02,-1.87 z"
           id="path2131"
           style="fill:#ed9080;stroke-width:0.0720473" />
        <g
           id="g2148"
           style="stroke-width:0.0720473">
          <path
             class="cls-74"
             d="m 863.73,131.05 c -1.15,4.96 -2.81,9.69 -5.2,13.3 -8.59,12.96 -40.45,20.24 -44.32,14.97 -0.14,-0.19 -0.27,-0.47 -0.39,-0.81 2.14,-0.11 4.18,-0.21 4.74,-0.2 4.01,0.06 9.65,-2.9 13.54,-3.86 1.64,-0.41 3.26,-0.98 4.78,-1.72 1.51,-0.73 2.97,-1.66 4.13,-2.88 0.95,-0.99 1.85,-2.24 1.83,-3.68 -0.02,-1.22 -0.64,-2.32 -1.33,-3.29 -0.78,-1.09 -1.69,-2.08 -2.47,-3.18 -0.67,-0.94 -3.04,-5.46 -3.07,-6.64 0.76,0.29 3.39,3.92 4.15,3.56 1.26,-0.6 1.34,-2.35 1.23,-3.55 -0.08,-0.81 -0.25,-1.6 -0.51,-2.37 -0.2,-0.6 -0.45,-1.18 -0.78,-1.71 0.88,-0.32 1.78,-0.6 2.69,-0.81 3.62,-0.87 7.38,-0.85 11.04,-0.22 0.08,0.01 0.2,-0.05 0.16,-0.15 -0.21,-0.64 -0.4,-1.29 -0.58,-1.94 -0.56,-2.13 -0.88,-4.33 -0.84,-6.53 0.05,0.08 0.1,0.17 0.15,0.26 1.21,1.98 2.76,3.74 4.38,5.39 0.84,0.85 1.7,1.68 2.57,2.5 0.79,0.73 1.57,1.47 2.4,2.17 0.56,0.48 1.13,0.95 1.7,1.41 z"
             id="path2132"
             style="opacity:0.1;fill:#231f20;stroke-width:0.0720473" />
          <g
             id="g2145"
             style="stroke-width:0.0720473">
            <path
               class="cls-237"
               d="m 816.73,116.19 c 0.11,-0.04 0.23,0.03 0.27,0.15 l 1.18,3.89 c 0.04,0.12 -0.02,0.25 -0.13,0.29 -0.11,0.04 -0.23,-0.03 -0.27,-0.16 l -1.17,-3.88 c -0.04,-0.12 0.02,-0.26 0.13,-0.3 z"
               id="path2133"
               style="fill:#e2aa50;stroke-width:0.0720473" />
            <path
               class="cls-94"
               d="m 816.91,110.12 9.01,-3.66 c 1.17,-0.47 2.43,0.14 2.8,1.38 l 7.66,25.35 c 0.37,1.24 -0.34,2.45 -1.57,2.7 l -3.91,0.8 c -0.17,0.03 -0.33,0.07 -0.5,0.06 -0.04,0 -0.07,0 -0.11,0 l -0.81,0.17 c 0,0 -0.07,0.02 -0.1,0.03 -0.14,0.08 -0.31,0.1 -0.47,0.14 l -3.63,0.74 c -1.08,0.22 -2.22,-0.52 -2.56,-1.66 l -7.02,-23.24 c -0.34,-1.13 0.19,-2.38 1.21,-2.8 z"
               id="path2134"
               style="fill:#efb652;stroke-width:0.0720473" />
            <path
               class="cls-116"
               d="m 817.19,110.88 8.93,-3.58 c 0.76,-0.31 1.59,0.1 1.83,0.91 l 7.58,25.09 c 0.24,0.81 -0.22,1.6 -1.02,1.77 l -9.42,1.97 c -0.71,0.15 -1.46,-0.34 -1.69,-1.09 l -7.02,-23.23 c -0.23,-0.75 0.13,-1.57 0.8,-1.84 z"
               id="path2135"
               style="fill:#ffc75a;stroke-width:0.0720473" />
            <path
               class="cls-1"
               d="m 827.6,112.27 c -1,2.74 -2.09,5.45 -3.21,8.15 -1.09,2.62 -2.2,5.22 -3.29,7.84 l -4.71,-15.57 c -0.23,-0.75 0.13,-1.57 0.8,-1.84 l 8.93,-3.58 c 0.76,-0.31 1.59,0.1 1.83,0.91 l 0.5,1.67 c -0.28,0.81 -0.56,1.63 -0.86,2.43 z"
               id="path2136"
               style="opacity:0.35;mix-blend-mode:soft-light;fill:#f9f8fd;stroke-width:0.0720473" />
            <path
               class="cls-99"
               d="m 834.65,134.06 c -0.24,-0.51 -0.82,-0.76 -1.37,-0.75 -0.46,0 -0.92,0.07 -1.38,0.1 -0.25,0.01 -0.49,0.02 -0.74,0 -0.19,-0.01 -0.39,-0.04 -0.56,-0.12 -0.41,-0.22 0,-0.73 0.17,-0.97 0.35,-0.47 -4.07,0.53 -4.19,-0.1 -0.06,-0.32 4.64,-2.09 4.39,-2.3 -0.25,-0.21 -0.57,-0.33 -0.88,-0.43 -0.33,-0.1 -0.68,-0.17 -1.02,-0.25 -0.34,-0.08 -0.68,-0.2 -1,-0.34 -0.5,-0.23 -0.92,-0.55 -1.3,-0.92 0.96,0.25 1.94,0.46 2.92,0.66 1.68,0.35 3.37,0.77 5.1,0.71 0.14,0 0.27,-0.01 0.41,-0.03 l 1.17,3.86 c 0.37,1.24 -0.34,2.45 -1.57,2.7 l -0.16,0.03 c 0.21,-0.59 0.26,-1.28 0,-1.85 z"
               id="path2137"
               style="opacity:0.15;fill:#231f20;stroke-width:0.0720473" />
            <path
               class="cls-116"
               d="m 829.22,109.74 c 0.11,-0.04 0.23,0.02 0.26,0.13 l 0.26,0.87 c 0.03,0.11 -0.03,0.24 -0.14,0.28 -0.11,0.04 -0.23,-0.02 -0.26,-0.13 l -0.26,-0.87 c -0.03,-0.11 0.03,-0.24 0.14,-0.28 z"
               id="path2138"
               style="fill:#ffc75a;stroke-width:0.0720473" />
            <path
               class="cls-116"
               d="m 829.68,111.78 c 0.19,-0.07 0.4,0.03 0.46,0.23 l 0.46,1.51 c 0.06,0.2 -0.05,0.41 -0.24,0.48 -0.19,0.07 -0.4,-0.04 -0.45,-0.23 l -0.45,-1.5 c -0.06,-0.2 0.05,-0.41 0.24,-0.48 z"
               id="path2139"
               style="fill:#ffc75a;stroke-width:0.0720473" />
            <path
               class="cls-116"
               d="m 830.33,113.96 c 0.19,-0.07 0.4,0.04 0.46,0.24 l 0.46,1.51 c 0.06,0.2 -0.05,0.41 -0.24,0.47 -0.19,0.06 -0.4,-0.04 -0.46,-0.24 l -0.45,-1.5 c -0.06,-0.2 0.05,-0.41 0.24,-0.48 z"
               id="path2140"
               style="fill:#ffc75a;stroke-width:0.0720473" />
            <path
               class="cls-94"
               d="m 827.54,135.98 4,-0.85 c 0,0 0.08,0.02 0.09,0.06 0.01,0.04 -0.01,0.08 -0.05,0.09 l -4,0.85 c 0,0 -0.08,-0.02 -0.09,-0.06 -0.01,-0.04 0,-0.08 0.05,-0.09 z"
               id="path2141"
               style="fill:#efb652;stroke-width:0.0720473" />
            <path
               class="cls-95"
               d="m 825.72,108.72 c 0.53,-0.16 1.09,0.13 1.26,0.66 l 1.2,3.89 c 0.16,0.53 -0.13,1.09 -0.66,1.26 -0.53,0.16 -1.09,-0.13 -1.26,-0.66 l -1.2,-3.89 c -0.16,-0.53 0.13,-1.09 0.66,-1.26 z"
               id="path2142"
               style="opacity:0.55;fill:#efb652;stroke-width:0.0720473" />
            <g
               id="g2144"
               style="stroke-width:0.0720473">
              <path
                 class="cls-259"
                 d="m 825.44,110.26 c 0.16,0.54 0.6,0.89 1,0.78 0.4,-0.1 0.59,-0.62 0.43,-1.16 -0.16,-0.54 -0.6,-0.89 -1,-0.78 -0.4,0.1 -0.59,0.62 -0.43,1.16 z"
                 id="path2143"
                 style="fill:#dba145;stroke-width:0.0720473" />
              <path
                 class="cls-241"
                 d="m 825.67,110.22 c 0.13,0.45 0.46,0.76 0.73,0.69 0.27,-0.07 0.38,-0.49 0.25,-0.94 -0.13,-0.45 -0.46,-0.76 -0.72,-0.69 -0.27,0.07 -0.38,0.49 -0.25,0.94 z"
                 id="path2144"
                 style="fill:#2d305e;stroke-width:0.0720473" />
            </g>
          </g>
          <path
             class="cls-271"
             d="m 819.63,123.4 c 1.05,-1.07 12.69,1.49 12.69,1.49 0,0 -0.47,-4.29 0.44,-4.76 0.81,-0.42 2.46,5.23 2.79,6.41 l 11.78,4.6 -1.09,6.25 -15.03,-6.28 c -1.61,0.62 -4.31,1.54 -4.97,1.05 -0.95,-0.71 0.65,-2.2 0.65,-2.2 0,0 -1.34,0.53 -1.59,-0.67 -0.25,-1.2 1.25,-1.08 1.25,-1.08 0,0 -1.64,-0.21 -1.46,-1.15 0.18,-0.94 1.56,-0.79 1.56,-0.79 0,0 -8.07,-1.8 -7.02,-2.87 z"
             id="path2145"
             style="fill:#ffa896;stroke-width:0.0720473" />
          <path
             class="cls-271"
             d="m 835.25,126.5 -1.45,4.45 c 0,0 30.53,31.53 39.66,19.81 6.71,-8.61 -0.71,-39.73 -8.74,-46.84 0,0 -7.46,-7.68 -10.03,10.98 l 2.4,14.85 z"
             id="path2146"
             style="fill:#ffa896;stroke-width:0.0720473" />
          <path
             class="cls-256"
             d="m 856.97,129.72 c 0,0 5.88,3.1 7.66,7.1 0,0 -3.42,-2.42 -12.31,-6.11 -8.9,-3.69 -17.06,-4.02 -17.06,-4.02 z"
             id="path2147"
             style="fill:#ed9080;stroke-width:0.0720473" />
          <path
             class="cls-159"
             d="m 859.46,127.39 c 0.92,0.14 1.84,0.21 2.77,0.2 0.5,0 1.01,-0.03 1.5,-0.11 0.42,-0.07 0.83,-0.16 1.24,-0.26 1.67,-0.43 3.26,-1.14 4.71,-2.07 1.47,-0.94 2.79,-2.11 3.91,-3.45 0.24,-0.29 0.47,-0.59 0.7,-0.9 -2.94,-10.02 -7.28,-19 -10.71,-22.04 0,0 -9.38,2.76 -11.95,21.42 l 3.67,6.43 c 1.39,0.25 2.77,0.57 4.17,0.78 z"
             id="path2148"
             style="fill:#f7cca9;stroke-width:0.0720473" />
        </g>
        <path
           class="cls-220"
           d="m 787.84,90.01 3.24,5.06 c 0,0 -2.97,0.72 -4.2,-1.22 -1.23,-1.94 0.97,-3.84 0.97,-3.84 z"
           id="path2149"
           style="fill:#f49f90;stroke-width:0.0720473" />
        <path
           class="cls-275"
           d="m 796.19,100.06 c 0,0 2.02,0.24 3.09,-0.36 1.07,-0.61 0.8,-0.96 0.8,-0.96 0,0 -2.16,-0.17 -3.07,-0.73 -0.91,-0.56 -0.81,2.06 -0.81,2.06 z"
           id="path2150"
           style="fill:#e88e82;stroke-width:0.0720473" />
        <path
           class="cls-125"
           d="m 791.07,94.24 5.97,3.51 c 0,0 -2.68,2.3 -4.96,0.94 -2.28,-1.35 -1.01,-4.45 -1.01,-4.45 z"
           id="path2151"
           style="fill:#e59185;stroke-width:0.0720473" />
        <g
           id="g2194"
           style="stroke-width:0.0720473">
          <path
             class="cls-80"
             d="m 789.24,71.64 c 0.64,-0.29 1.38,-0.52 1.96,-0.69 2.72,-0.79 5.72,-1.16 8.54,-1.37 4.1,-0.31 8.35,0.48 12.16,1.99 3.04,1.21 6.43,3.15 8.56,5.68 1.07,1.26 2.33,2.37 3.76,3.22 0.08,0.05 0.16,0.09 0.24,0.14 0.64,0.37 1.32,0.65 1.98,0.95 0.32,0.14 0.65,0.3 0.94,0.49 0.62,0.39 1.05,0.98 1.05,1.74 0,0.92 -0.63,1.54 -1.41,1.88 -0.72,0.32 -1.95,0.54 -2.74,0.7 -0.83,0.17 -1.68,0.35 -2.51,0.49 -1.75,0.29 -3.27,0.92 -4.82,1.77 -1.48,0.82 -2.89,1.76 -4.44,2.47 -2.73,1.24 -2.87,2.71 -3.94,5.19 -0.55,1.27 -1.41,2.33 -2.62,3.01 -2.72,1.53 -6.15,0.65 -8.81,-0.56 -3.27,-1.49 -6.4,-3.9 -8.94,-6.43 -3.87,-3.87 -8.66,-10.55 -7.12,-16.36 0.28,-1.07 0.81,-2.04 1.59,-2.83 1.77,-1.79 4.24,-2.1 6.57,-1.48 z"
             id="path2152"
             style="fill:#f29214;fill-rule:evenodd;stroke-width:0.0720473" />
          <path
             class="cls-85"
             d="m 789.4,73.44 c -3.49,-1.22 -6.02,0.37 -6.69,2.94 -2.78,10.53 20.06,29.16 24.34,19.24 0.9,-2.09 1.29,-4.46 4.78,-6.05 2.88,-1.31 5.42,-3.65 9.67,-4.36 0.64,-0.11 4.24,-0.81 4.86,-1.08 1.31,-0.57 -0.8,-0.97 -2.72,-2.06 -0.09,-0.05 -0.18,-0.1 -0.27,-0.16 -1.21,-0.72 -2.71,-1.85 -4.18,-3.58 -3.26,-3.85 -11.38,-7.67 -19.32,-7.08 -7.94,0.59 -10.47,2.18 -10.47,2.18 z"
             id="path2153"
             style="fill:#f9c66d;fill-rule:evenodd;stroke-width:0.0720473" />
          <path
             class="cls-81"
             d="m 801.78,98.39 c 2.36,0.26 4.29,-0.52 5.26,-2.76 0.38,-0.89 0.68,-1.83 1.15,-2.75 -1.03,-1.29 -2.96,-1.82 -4.8,-1.18 -2.26,0.79 -3.52,3.05 -2.82,5.05 0.23,0.67 0.66,1.22 1.21,1.64 z"
             id="path2154"
             style="fill:#ffc75a;fill-rule:evenodd;stroke-width:0.0720473" />
          <path
             class="cls-86"
             d="m 823.56,83.99 c 0.49,-0.01 0.85,-0.79 0.49,-1.43 -0.57,-1.04 -1.46,-1.47 -2.17,-1.65 -0.86,-0.66 -1.78,-1.5 -2.69,-2.57 -3.26,-3.85 -11.38,-7.67 -19.32,-7.08 -7.94,0.59 -10.47,2.18 -10.47,2.18 -0.04,-0.02 4.02,9.34 6.19,11.41 4.87,4.64 9.09,5.56 10.21,4.99 1.12,-0.56 3.66,-3.88 10.28,-5.62 0.31,-0.08 0.62,-0.16 0.91,-0.24 0.67,0.34 1.17,1.05 1.21,2.39 0.11,3.58 2.1,4.48 2.84,3.33 0.75,-1.15 -1.65,-4.72 -0.79,-4.14 0.86,0.58 2.16,4.28 2.66,6.22 0.5,1.94 3.27,1.64 2.77,-0.4 -0.49,-2.04 -3.86,-7.12 -3.2,-8.02 0.26,-0.35 0.76,0.63 1.08,0.62 z"
             id="path2155"
             style="fill:#ffbd07;fill-rule:evenodd;stroke-width:0.0720473" />
          <path
             class="cls-80"
             d="m 807.58,93.87 c -0.31,-2.58 -6.08,-3.52 -6.9,1.74 -0.12,0.77 0.09,1.61 0.72,2.07 -0.93,0.15 -1.28,-1.53 -1.25,-2.15 0.35,-6.11 7.97,-5.94 8.69,-1.76 0.03,0.35 -0.23,0.65 -0.58,0.68 -0.35,0.03 -0.65,-0.23 -0.68,-0.58 z"
             id="path2156"
             style="fill:#f29214;fill-rule:evenodd;stroke-width:0.0720473" />
          <path
             class="cls-81"
             d="m 820.88,80.08 c -0.56,-0.5 -1.13,-1.08 -1.69,-1.74 -3.26,-3.85 -11.38,-7.67 -19.32,-7.08 -3.09,0.23 -5.36,0.61 -6.98,0.99 3.94,6.85 8.78,10.92 25.09,8.39 1.03,-0.16 2,-0.35 2.91,-0.56 z"
             id="path2157"
             style="fill:#ffc75a;fill-rule:evenodd;stroke-width:0.0720473" />
          <path
             class="cls-163"
             d="m 799.55,82.25 c 1.02,-0.17 0.32,-0.29 1.6,-0.96 1.27,-0.67 2.94,-1.04 2.81,-1.9 -0.14,-0.86 -2.19,1.5 -3.26,0.93 -1.07,-0.57 -1.02,-2.41 -1.7,-1.67 -0.68,0.74 -1.69,3.97 0.55,3.6 z"
             id="path2158"
             style="fill:#349e16;stroke-width:0.0720473" />
          <path
             class="cls-163"
             d="m 815.9,81.92 c 0.59,-0.33 0.13,-0.25 0.77,-0.95 0.63,-0.7 1.58,-1.3 1.3,-1.8 -0.28,-0.5 -1.01,1.41 -1.79,1.3 -0.79,-0.11 -1.17,-1.26 -1.42,-0.65 -0.25,0.61 -0.15,2.82 1.15,2.09 z"
             id="path2159"
             style="fill:#349e16;stroke-width:0.0720473" />
          <path
             class="cls-163"
             d="m 809.74,76.06 c 0.71,-0.4 0.16,-0.3 0.92,-1.14 0.76,-0.84 1.89,-1.56 1.56,-2.16 -0.33,-0.6 -1.21,1.7 -2.15,1.57 -0.94,-0.13 -1.4,-1.51 -1.7,-0.78 -0.3,0.73 -0.18,3.38 1.38,2.51 z"
             id="path2160"
             style="fill:#349e16;stroke-width:0.0720473" />
          <g
             class="cls-240"
             id="g2172"
             style="opacity:0.8;stroke-width:0.0720473">
            <g
               id="g2162"
               style="stroke-width:0.0720473">
              <path
                 class="cls-274"
                 d="m 800.72,74.14 h 0.46 c 0,0 -0.16,-0.24 -0.01,-0.47 0.15,-0.23 0.19,-0.58 0.19,-0.58 l -0.52,0.12 c 0,0 0.04,0.46 -0.05,0.56 -0.09,0.1 -0.07,0.37 -0.07,0.37 z"
                 id="path2161"
                 style="fill:#009444;stroke-width:0.0720473" />
              <path
                 class="cls-277"
                 d="m 800.31,75.17 0.57,-0.39 c 0,0 -0.4,-0.16 -0.43,-0.57 -0.02,-0.41 -0.27,-0.86 -0.27,-0.86 l -0.52,0.6 c 0,0 0.45,0.52 0.42,0.72 -0.03,0.2 0.22,0.51 0.22,0.51 z"
                 id="path2162"
                 style="fill:#006838;stroke-width:0.0720473" />
            </g>
            <g
               id="g2164"
               style="stroke-width:0.0720473">
              <path
                 class="cls-274"
                 d="m 809.24,80.62 0.24,-0.24 c 0,0 -0.21,-0.05 -0.25,-0.24 -0.05,-0.2 -0.2,-0.4 -0.2,-0.4 l -0.2,0.33 c 0,0 0.26,0.21 0.26,0.31 0,0.1 0.15,0.23 0.15,0.23 z"
                 id="path2163"
                 style="fill:#009444;stroke-width:0.0720473" />
              <path
                 class="cls-277"
                 d="m 809.56,81.37 0.09,-0.5 c 0,0 -0.29,0.12 -0.52,-0.08 -0.22,-0.2 -0.59,-0.31 -0.59,-0.31 l 0.04,0.58 c 0,0 0.5,0.04 0.59,0.15 0.09,0.12 0.38,0.15 0.38,0.15 z"
                 id="path2164"
                 style="fill:#006838;stroke-width:0.0720473" />
            </g>
            <g
               id="g2168"
               style="stroke-width:0.0720473">
              <path
                 class="cls-274"
                 d="m 810.63,77.69 h 0.52 c 0,0 -0.18,-0.27 -0.01,-0.53 0.16,-0.26 0.21,-0.65 0.21,-0.65 l -0.58,0.14 c 0,0 0.05,0.51 -0.05,0.63 -0.1,0.11 -0.08,0.41 -0.08,0.41 z"
                 id="path2165"
                 style="fill:#009444;stroke-width:0.0720473" />
              <g
                 id="g2167"
                 style="stroke-width:0.0720473">
                <path
                   class="cls-274"
                   d="m 811.62,76.86 h 0.32 c 0,0 -0.11,-0.16 0,-0.32 0.11,-0.16 0.13,-0.39 0.13,-0.39 l -0.35,0.08 c 0,0 0.03,0.31 -0.03,0.38 -0.06,0.07 -0.05,0.25 -0.05,0.25 z"
                   id="path2166"
                   style="fill:#009444;stroke-width:0.0720473" />
                <path
                   class="cls-277"
                   d="m 811.34,77.57 0.39,-0.26 c 0,0 -0.27,-0.11 -0.29,-0.39 -0.02,-0.28 -0.18,-0.59 -0.18,-0.59 l -0.35,0.4 c 0,0 0.3,0.35 0.29,0.49 -0.02,0.14 0.15,0.35 0.15,0.35 z"
                   id="path2167"
                   style="fill:#006838;stroke-width:0.0720473" />
              </g>
            </g>
            <g
               id="g2171"
               style="stroke-width:0.0720473">
              <path
                 class="cls-274"
                 d="m 794.15,78.22 h -0.63 c 0,0 0.21,0.32 0.02,0.64 -0.2,0.32 -0.25,0.78 -0.25,0.78 l 0.7,-0.17 c 0,0 -0.06,-0.62 0.07,-0.76 0.13,-0.14 0.1,-0.5 0.1,-0.5 z"
                 id="path2168"
                 style="fill:#009444;stroke-width:0.0720473" />
              <g
                 id="g2170"
                 style="stroke-width:0.0720473">
                <path
                   class="cls-274"
                   d="m 792.95,79.22 h -0.38 c 0,0 0.13,0.2 0,0.39 -0.12,0.19 -0.15,0.48 -0.15,0.48 l 0.43,-0.1 c 0,0 -0.04,-0.38 0.04,-0.46 0.08,-0.08 0.06,-0.3 0.06,-0.3 z"
                   id="path2169"
                   style="fill:#009444;stroke-width:0.0720473" />
                <path
                   class="cls-277"
                   d="m 793.29,78.36 -0.47,0.32 c 0,0 0.33,0.13 0.35,0.47 0.02,0.34 0.22,0.71 0.22,0.71 l 0.43,-0.49 c 0,0 -0.37,-0.43 -0.35,-0.59 0.02,-0.17 -0.18,-0.42 -0.18,-0.42 z"
                   id="path2170"
                   style="fill:#006838;stroke-width:0.0720473" />
              </g>
            </g>
          </g>
          <g
             id="g2178"
             style="stroke-width:0.0720473">
            <g
               id="g2173"
               style="stroke-width:0.0720473">
              <path
                 class="cls-83"
                 d="m 804.76,83.59 c 1.48,-0.16 3.14,0.52 3.31,1.63 0.16,1.1 -1.23,2.2 -2.71,2.36 -1.48,0.16 -2.48,-0.67 -2.65,-1.77 -0.17,-1.1 0.57,-2.05 2.05,-2.22 z"
                 id="path2172"
                 style="fill:#e63e0e;fill-rule:evenodd;stroke-width:0.0720473" />
              <path
                 class="cls-84"
                 d="m 807.67,85.35 c -0.2,0.39 -0.57,0.75 -1.03,1.02 -0.45,0.27 -0.98,0.45 -1.52,0.51 -0.18,0.02 -0.35,0.02 -0.51,0.01 -0.32,-0.01 -0.61,-0.08 -0.87,-0.19 -0.31,-0.13 -0.57,-0.32 -0.78,-0.55 -0.09,-0.1 -0.16,-0.21 -0.23,-0.32 0.02,0.13 0.05,0.25 0.09,0.36 0.09,0.25 0.23,0.48 0.4,0.68 0.46,0.51 1.21,0.81 2.15,0.7 0.22,-0.02 0.43,-0.07 0.64,-0.13 0.54,-0.16 1.03,-0.43 1.41,-0.76 0.39,-0.35 0.64,-0.77 0.67,-1.2 0,-0.09 0,-0.18 -0.01,-0.27 -0.02,-0.15 -0.07,-0.3 -0.15,-0.44 -0.03,-0.04 -0.05,-0.09 -0.08,-0.13 0,0.03 0,0.07 0,0.1 0,0.21 -0.07,0.41 -0.17,0.6 z"
                 id="path2173"
                 style="fill:#c4181f;fill-rule:evenodd;stroke-width:0.0720473" />
            </g>
            <path
               class="cls-82"
               d="m 803.72,84.28 c 0,0 0.02,0.56 0.58,0.45 0.55,-0.11 -0.58,-0.45 -0.58,-0.45 z"
               id="path2174"
               style="fill:#ea9677;fill-rule:evenodd;stroke-width:0.0720473" />
            <path
               class="cls-82"
               d="m 804.73,85.17 c 0,0 -0.85,0.59 -0.38,0.54 0.47,-0.04 0.38,-0.54 0.38,-0.54 z"
               id="path2175"
               style="fill:#ea9677;fill-rule:evenodd;stroke-width:0.0720473" />
            <path
               class="cls-82"
               d="m 805.52,85.28 c 0,0 0.07,0.51 0.48,0.24 0.42,-0.27 -0.48,-0.24 -0.48,-0.24 z"
               id="path2176"
               style="fill:#ea9677;fill-rule:evenodd;stroke-width:0.0720473" />
            <path
               class="cls-82"
               d="m 805.67,84.67 c 0,0 0.82,-0.04 0.71,-0.27 -0.11,-0.23 -0.71,0.27 -0.71,0.27 z"
               id="path2177"
               style="fill:#ea9677;fill-rule:evenodd;stroke-width:0.0720473" />
            <path
               class="cls-82"
               d="m 805.18,84.48 c 0,0 0.67,-0.39 0.31,-0.47 -0.36,-0.08 -0.31,0.47 -0.31,0.47 z"
               id="path2178"
               style="fill:#ea9677;fill-rule:evenodd;stroke-width:0.0720473" />
          </g>
          <g
             id="g2185"
             style="stroke-width:0.0720473">
            <g
               id="g2180"
               style="stroke-width:0.0720473">
              <path
                 class="cls-83"
                 d="m 804.48,73.98 c 1.21,-0.13 2.56,0.43 2.69,1.32 0.13,0.89 -1,1.79 -2.21,1.92 -1.2,0.13 -2.02,-0.54 -2.15,-1.44 -0.13,-0.89 0.47,-1.67 1.67,-1.8 z"
                 id="path2179"
                 style="fill:#e63e0e;fill-rule:evenodd;stroke-width:0.0720473" />
              <path
                 class="cls-84"
                 d="m 806.84,75.4 c -0.16,0.32 -0.47,0.61 -0.84,0.83 -0.37,0.22 -0.8,0.37 -1.24,0.42 -0.14,0.02 -0.28,0.02 -0.42,0.01 -0.26,-0.01 -0.5,-0.06 -0.71,-0.15 -0.25,-0.11 -0.47,-0.26 -0.63,-0.45 -0.07,-0.08 -0.13,-0.17 -0.19,-0.26 0.02,0.1 0.04,0.2 0.07,0.3 0.07,0.2 0.18,0.39 0.33,0.55 0.38,0.42 0.98,0.65 1.74,0.57 0.18,-0.02 0.35,-0.06 0.52,-0.11 0.44,-0.13 0.84,-0.35 1.14,-0.62 0.32,-0.28 0.52,-0.63 0.55,-0.98 0,-0.07 0,-0.15 0,-0.22 -0.02,-0.12 -0.06,-0.24 -0.12,-0.36 -0.02,-0.04 -0.04,-0.07 -0.07,-0.11 0,0.03 0,0.06 0,0.08 0,0.17 -0.06,0.33 -0.14,0.49 z"
                 id="path2180"
                 style="fill:#c4181f;fill-rule:evenodd;stroke-width:0.0720473" />
            </g>
            <path
               class="cls-82"
               d="m 803.63,74.54 c 0,0 0.02,0.46 0.47,0.37 0.45,-0.09 -0.47,-0.37 -0.47,-0.37 z"
               id="path2181"
               style="fill:#ea9677;fill-rule:evenodd;stroke-width:0.0720473" />
            <path
               class="cls-82"
               d="m 804.45,75.26 c 0,0 -0.69,0.48 -0.31,0.44 0.38,-0.04 0.31,-0.44 0.31,-0.44 z"
               id="path2182"
               style="fill:#ea9677;fill-rule:evenodd;stroke-width:0.0720473" />
            <path
               class="cls-82"
               d="m 805.09,75.35 c 0,0 0.05,0.41 0.39,0.19 0.34,-0.22 -0.39,-0.19 -0.39,-0.19 z"
               id="path2183"
               style="fill:#ea9677;fill-rule:evenodd;stroke-width:0.0720473" />
            <path
               class="cls-82"
               d="m 805.21,74.86 c 0,0 0.67,-0.04 0.58,-0.22 -0.09,-0.18 -0.58,0.22 -0.58,0.22 z"
               id="path2184"
               style="fill:#ea9677;fill-rule:evenodd;stroke-width:0.0720473" />
            <path
               class="cls-82"
               d="m 804.82,74.7 c 0,0 0.54,-0.32 0.25,-0.38 -0.29,-0.07 -0.25,0.38 -0.25,0.38 z"
               id="path2185"
               style="fill:#ea9677;fill-rule:evenodd;stroke-width:0.0720473" />
          </g>
          <g
             id="g2192"
             style="stroke-width:0.0720473">
            <g
               id="g2187"
               style="stroke-width:0.0720473">
              <path
                 class="cls-83"
                 d="m 814.49,76.52 c 1.21,-0.13 2.56,0.43 2.69,1.32 0.13,0.89 -1,1.79 -2.21,1.92 -1.2,0.13 -2.02,-0.54 -2.15,-1.44 -0.13,-0.89 0.47,-1.67 1.67,-1.8 z"
                 id="path2186"
                 style="fill:#e63e0e;fill-rule:evenodd;stroke-width:0.0720473" />
              <path
                 class="cls-84"
                 d="m 816.85,77.95 c -0.16,0.32 -0.47,0.61 -0.84,0.83 -0.37,0.22 -0.8,0.37 -1.24,0.42 -0.14,0.02 -0.28,0.02 -0.42,0.01 -0.26,-0.01 -0.5,-0.06 -0.71,-0.15 -0.25,-0.11 -0.47,-0.26 -0.63,-0.45 -0.07,-0.08 -0.13,-0.17 -0.19,-0.26 0.02,0.1 0.04,0.2 0.07,0.3 0.07,0.2 0.18,0.39 0.33,0.55 0.38,0.42 0.98,0.65 1.74,0.57 0.18,-0.02 0.35,-0.06 0.52,-0.11 0.44,-0.13 0.84,-0.35 1.14,-0.62 0.32,-0.28 0.52,-0.63 0.55,-0.98 0,-0.07 0,-0.15 0,-0.22 -0.02,-0.12 -0.06,-0.24 -0.12,-0.36 -0.02,-0.04 -0.04,-0.07 -0.07,-0.11 0,0.03 0,0.06 0,0.08 0,0.17 -0.06,0.33 -0.14,0.49 z"
                 id="path2187"
                 style="fill:#c4181f;fill-rule:evenodd;stroke-width:0.0720473" />
            </g>
            <path
               class="cls-82"
               d="m 813.64,77.09 c 0,0 0.02,0.46 0.47,0.37 0.45,-0.09 -0.47,-0.37 -0.47,-0.37 z"
               id="path2188"
               style="fill:#ea9677;fill-rule:evenodd;stroke-width:0.0720473" />
            <path
               class="cls-82"
               d="m 814.46,77.81 c 0,0 -0.69,0.48 -0.31,0.44 0.38,-0.04 0.31,-0.44 0.31,-0.44 z"
               id="path2189"
               style="fill:#ea9677;fill-rule:evenodd;stroke-width:0.0720473" />
            <path
               class="cls-82"
               d="m 815.1,77.9 c 0,0 0.05,0.41 0.39,0.19 0.34,-0.22 -0.39,-0.19 -0.39,-0.19 z"
               id="path2190"
               style="fill:#ea9677;fill-rule:evenodd;stroke-width:0.0720473" />
            <path
               class="cls-82"
               d="m 815.22,77.41 c 0,0 0.67,-0.04 0.58,-0.22 -0.09,-0.18 -0.58,0.22 -0.58,0.22 z"
               id="path2191"
               style="fill:#ea9677;fill-rule:evenodd;stroke-width:0.0720473" />
            <path
               class="cls-82"
               d="m 814.83,77.25 c 0,0 0.54,-0.32 0.25,-0.38 -0.29,-0.07 -0.25,0.38 -0.25,0.38 z"
               id="path2192"
               style="fill:#ea9677;fill-rule:evenodd;stroke-width:0.0720473" />
          </g>
          <path
             class="cls-80"
             d="m 789.02,72.81 c 0,0 4.67,11.77 11.07,14.85 0,0 -8.69,-0.38 -14.23,-14.31 0,0 0.47,-1.81 3.15,-0.54 z"
             id="path2193"
             style="fill:#f29214;fill-rule:evenodd;stroke-width:0.0720473" />
          <path
             class="cls-89"
             d="m 783.24,77.12 c 0,0 1.82,-3.69 2.49,-2.79 0.67,0.89 1.25,7.32 5.21,9.98 3.97,2.66 7.31,5.54 11.13,6.05 0,0 -3.51,3.87 -9.16,-1.7 -5.65,-5.57 -6.17,-7.71 -7.7,-9.67 -1.53,-1.96 -2.62,0.71 -1.96,-1.86 z"
             id="path2194"
             style="fill:#edce98;stroke-width:0.0720473" />
        </g>
        <path
           class="cls-271"
           d="m 791.1,70.79 c 0,0 -0.45,-2.94 2.26,-3.48 2.71,-0.54 7.31,2.75 7.31,2.75 l -4.72,0.09 c 0,0 -3.88,3.05 -4.86,0.63 z"
           id="path2195"
           style="fill:#ffa896;stroke-width:0.0720473" />
        <path
           class="cls-271"
           d="m 794.03,97.74 c -0.54,0.78 -2.97,0.86 -3.69,-0.93 -0.72,-1.79 -1.9,-7.54 -0.77,-8.45 1.13,-0.91 2.99,1.93 3.59,3.67 0.6,1.74 1.7,4.52 0.88,5.71 z"
           id="path2196"
           style="fill:#ffa896;stroke-width:0.0720473" />
        <path
           class="cls-99"
           d="m 791.35,70.73 c 0.1,0.29 1.24,0.64 1.91,-0.46 0.67,-1.1 0.64,-1.6 0.64,-1.6 0,0 -1.62,-0.11 -1.93,0.05 -0.31,0.17 -0.87,1.28 -0.62,2.01 z"
           id="path2197"
           style="opacity:0.15;fill:#231f20;stroke-width:0.0720473" />
        <path
           class="cls-271"
           d="m 798.37,99.25 c 0,0 -2.06,1.81 -2.55,0.31 -0.49,-1.5 -1.15,-6.25 -0.18,-6.93 0.97,-0.68 2.34,1.73 2.73,3.18 0.39,1.45 0,3.43 0,3.43 z"
           id="path2198"
           style="fill:#ffa896;stroke-width:0.0720473" />
        <path
           class="cls-275"
           d="m 795.97,95.29 c 0,0 0.86,0.02 1.15,-0.3 0.29,-0.32 -0.56,-1.95 -1.01,-2.15 -0.45,-0.2 -0.63,1.72 -0.14,2.45 z"
           id="path2199"
           style="fill:#e88e82;stroke-width:0.0720473" />
        <path
           class="cls-275"
           d="m 789.71,91 c 0,0 1.16,0.25 1.49,0.05 0.33,-0.19 -0.72,-2.52 -1.27,-2.42 -0.55,0.09 -0.22,2.37 -0.22,2.37 z"
           id="path2200"
           style="fill:#e88e82;stroke-width:0.0720473" />
        <path
           class="cls-220"
           d="m 782.96,85.24 3.24,5.06 c 0,0 -2.97,0.72 -4.2,-1.22 -1.23,-1.94 0.97,-3.84 0.97,-3.84 z"
           id="path2201"
           style="fill:#f49f90;stroke-width:0.0720473" />
        <path
           class="cls-271"
           d="m 788.99,95.14 c 0,0 -3.14,-0.59 -4.27,-2.91 -1.13,-2.31 -0.83,-8.54 0.06,-8.54 0.89,0 2.79,3.68 3.03,4.51 0.24,0.83 0.65,4.86 1.19,6.94 z"
           id="path2202"
           style="fill:#ffa896;stroke-width:0.0720473" />
        <path
           class="cls-275"
           d="m 784.48,87.14 c 0,0 1.05,0.73 1.27,0.22 0.22,-0.51 -0.37,-3.4 -0.98,-3.25 -0.61,0.15 -0.29,3.03 -0.29,3.03 z"
           id="path2203"
           style="fill:#e88e82;stroke-width:0.0720473" />
        <path
           class="cls-271"
           d="m 783.02,89.55 c -0.57,0.92 -2.26,-0.68 -2.71,-3.21 -0.45,-2.53 1.55,-8.44 2.4,-8.2 0.86,0.24 1.19,1.72 1.19,2.58 0,0.86 0.31,6.9 -0.89,8.83 z"
           id="path2204"
           style="fill:#ffa896;stroke-width:0.0720473" />
        <path
           class="cls-275"
           d="m 781.53,81.37 c 0,0 0.49,0.6 0.84,0.33 0.35,-0.27 0.94,-3.49 0.24,-3.06 -0.7,0.43 -1.08,2.73 -1.08,2.73 z"
           id="path2205"
           style="fill:#e88e82;stroke-width:0.0720473" />
        <path
           class="cls-256"
           d="m 805.46,106.52 c 0,0 4.06,9.86 0.35,14.86 0,0 5.62,-5.31 -0.35,-14.86 z"
           id="path2206"
           style="fill:#ed9080;stroke-width:0.0720473" />
      </g>
      <g
         id="g2212"
         style="stroke-width:0.0720473">
        <g
           id="g2208"
           style="stroke-width:0.0720473">
          <path
             class="cls-160"
             d="m 784.86,97.44 c 0.11,4.77 -0.18,9.55 -0.85,14.27 -0.2,0 -0.31,0.08 -0.49,0.2 -0.2,0.13 -0.44,0.3 -0.87,0.3 -0.43,0 -0.61,-0.17 -0.76,-0.3 -0.14,-0.12 -0.22,-0.19 -0.41,-0.2 -0.2,-0.01 -0.3,0.05 -0.48,0.15 -0.2,0.11 -0.46,0.25 -0.87,0.21 -0.42,-0.05 -0.59,-0.23 -0.72,-0.37 -0.12,-0.13 -0.2,-0.21 -0.39,-0.24 -0.19,-0.03 -0.3,0.02 -0.49,0.1 -0.2,0.09 -0.46,0.2 -0.87,0.12 -0.41,-0.09 -0.56,-0.28 -0.68,-0.44 -0.11,-0.14 -0.17,-0.22 -0.36,-0.27 -0.18,-0.05 -0.29,-0.01 -0.48,0.05 -0.21,0.07 -0.47,0.16 -0.86,0.03 -0.39,-0.13 -0.53,-0.33 -0.63,-0.5 -0.1,-0.15 -0.16,-0.24 -0.33,-0.3 -0.18,-0.07 -0.29,-0.04 -0.48,0 -0.21,0.05 -0.47,0.11 -0.85,-0.05 -0.38,-0.16 -0.49,-0.38 -0.59,-0.56 -0.09,-0.16 -0.13,-0.25 -0.3,-0.33 -0.17,-0.08 -0.28,-0.07 -0.47,-0.05 -0.2,0.03 -0.47,0.06 -0.82,-0.14 -0.36,-0.2 -0.46,-0.43 -0.54,-0.61 -0.07,-0.17 -0.11,-0.26 -0.28,-0.36 -0.16,-0.1 -0.27,-0.1 -0.46,-0.09 -0.2,0 -0.46,0.01 -0.81,-0.22 -0.34,-0.23 -0.42,-0.47 -0.48,-0.66 -0.06,-0.17 -0.09,-0.27 -0.25,-0.39 2.63,-3.27 4.99,-6.85 7.05,-10.66 0.21,0.11 0.25,0.29 0.28,0.44 0.03,0.14 0.05,0.21 0.15,0.26 0.1,0.05 0.18,0.02 0.31,-0.04 0.14,-0.07 0.31,-0.16 0.53,-0.07 0.22,0.09 0.27,0.27 0.31,0.41 0.04,0.13 0.07,0.21 0.18,0.24 0.11,0.04 0.18,0 0.3,-0.08 0.14,-0.08 0.3,-0.19 0.53,-0.12 0.22,0.07 0.29,0.24 0.35,0.38 0.05,0.13 0.08,0.2 0.19,0.23 0.11,0.03 0.18,-0.02 0.3,-0.11 0.13,-0.1 0.29,-0.22 0.53,-0.17 0.23,0.04 0.31,0.21 0.38,0.35 0.06,0.13 0.1,0.19 0.21,0.21 0.11,0.02 0.18,-0.03 0.3,-0.14 0.13,-0.11 0.28,-0.25 0.52,-0.23 0.24,0.02 0.34,0.18 0.41,0.31 0.07,0.12 0.12,0.18 0.23,0.19 0.12,0 0.18,-0.05 0.29,-0.17 0.12,-0.12 0.27,-0.28 0.51,-0.28 0.25,0 0.36,0.15 0.44,0.28 0.08,0.11 0.14,0.17 0.25,0.17 0.12,0 0.18,-0.07 0.28,-0.2 0.11,-0.14 0.25,-0.3 0.5,-0.33 0.25,-0.03 0.37,0.12 0.47,0.23 0.1,0.11 0.15,0.16 0.27,0.14 0.12,-0.02 0.18,-0.09 0.28,-0.23 0.1,-0.15 0.23,-0.33 0.49,-0.38 z"
             id="path2207"
             style="fill:#ffffff;stroke-width:0.0720473" />
          <path
             class="cls-116"
             d="m 782.63,112.36 c -0.54,0 -0.77,-0.22 -0.93,-0.36 -0.14,-0.12 -0.17,-0.14 -0.25,-0.14 -0.08,0 -0.11,0 -0.3,0.11 -0.21,0.12 -0.54,0.3 -1.07,0.25 -0.54,-0.06 -0.76,-0.31 -0.89,-0.45 -0.12,-0.13 -0.15,-0.15 -0.23,-0.16 -0.08,-0.01 -0.11,0 -0.3,0.08 -0.22,0.1 -0.55,0.24 -1.06,0.14 -0.51,-0.11 -0.7,-0.36 -0.83,-0.53 -0.11,-0.15 -0.14,-0.17 -0.21,-0.19 -0.08,-0.02 -0.1,-0.02 -0.3,0.05 -0.23,0.08 -0.56,0.19 -1.05,0.03 -0.49,-0.16 -0.66,-0.43 -0.78,-0.6 -0.1,-0.16 -0.12,-0.18 -0.2,-0.21 -0.07,-0.03 -0.1,-0.03 -0.3,0.02 -0.22,0.05 -0.56,0.13 -1.03,-0.07 -0.47,-0.2 -0.62,-0.49 -0.72,-0.67 -0.09,-0.17 -0.11,-0.19 -0.18,-0.22 -0.07,-0.04 -0.11,-0.04 -0.3,-0.01 -0.2,0.03 -0.55,0.08 -1,-0.18 -0.45,-0.25 -0.57,-0.55 -0.66,-0.74 -0.07,-0.18 -0.09,-0.2 -0.16,-0.24 -0.07,-0.04 -0.1,-0.05 -0.29,-0.04 -0.2,0 -0.55,0.02 -0.98,-0.28 -0.43,-0.3 -0.53,-0.62 -0.59,-0.81 -0.06,-0.18 -0.07,-0.2 -0.14,-0.24 -0.06,-0.05 -0.12,-0.09 -0.19,-0.14 2.71,-3.31 5.15,-6.94 7.28,-10.82 0.04,0.02 0.08,0.04 0.12,0.06 0.26,0.13 0.31,0.38 0.34,0.52 0.03,0.13 0.04,0.15 0.08,0.17 0.04,0.02 0.06,0.02 0.19,-0.04 0.14,-0.07 0.36,-0.19 0.64,-0.07 0.27,0.11 0.34,0.35 0.38,0.49 0.04,0.13 0.05,0.14 0.1,0.16 0.04,0.02 0.06,0.01 0.19,-0.06 0.15,-0.09 0.36,-0.22 0.64,-0.14 0.28,0.08 0.37,0.31 0.43,0.46 0.05,0.13 0.06,0.14 0.11,0.15 0.05,0.01 0.07,0 0.18,-0.08 0.14,-0.1 0.35,-0.26 0.64,-0.2 0.29,0.05 0.39,0.27 0.47,0.41 0.06,0.13 0.08,0.14 0.13,0.15 0.05,0 0.07,0 0.18,-0.1 0.14,-0.12 0.33,-0.29 0.63,-0.27 0.3,0.03 0.42,0.23 0.5,0.37 0.07,0.12 0.09,0.13 0.14,0.14 0.05,0 0.07,0 0.18,-0.12 0.13,-0.13 0.32,-0.33 0.62,-0.33 0.31,0 0.46,0.2 0.54,0.32 0.08,0.11 0.1,0.12 0.15,0.12 0.05,0 0.07,-0.01 0.17,-0.13 0.12,-0.15 0.3,-0.36 0.61,-0.39 0.31,-0.03 0.47,0.15 0.57,0.27 0.1,0.11 0.12,0.11 0.17,0.11 0.05,0 0.07,-0.02 0.17,-0.16 0.1,-0.14 0.27,-0.39 0.59,-0.45 0.05,-0.01 0.1,-0.02 0.14,-0.03 0.16,4.88 -0.1,9.77 -0.76,14.61 -0.08,0 -0.16,0 -0.25,0.01 -0.08,0 -0.12,0.02 -0.3,0.14 -0.21,0.14 -0.53,0.36 -1.07,0.35 z m -1.11,-0.81 c 0.3,0.01 0.43,0.13 0.58,0.25 0.14,0.13 0.27,0.24 0.59,0.24 0.32,0 0.49,-0.11 0.67,-0.24 0.13,-0.09 0.26,-0.17 0.43,-0.22 0.68,-4.61 0.99,-9.27 0.93,-13.93 -0.09,0.06 -0.16,0.14 -0.23,0.25 -0.1,0.14 -0.2,0.27 -0.39,0.3 -0.19,0.03 -0.28,-0.07 -0.38,-0.18 -0.1,-0.11 -0.18,-0.21 -0.37,-0.19 -0.19,0.02 -0.28,0.14 -0.39,0.26 -0.1,0.13 -0.21,0.25 -0.4,0.26 -0.19,0 -0.28,-0.11 -0.36,-0.22 -0.09,-0.13 -0.17,-0.23 -0.35,-0.23 -0.18,0 -0.29,0.11 -0.4,0.23 -0.11,0.11 -0.22,0.22 -0.41,0.21 -0.19,0 -0.26,-0.13 -0.33,-0.25 -0.07,-0.13 -0.14,-0.24 -0.32,-0.26 -0.18,-0.02 -0.29,0.08 -0.41,0.18 -0.12,0.1 -0.24,0.2 -0.42,0.18 -0.18,-0.03 -0.25,-0.16 -0.3,-0.28 -0.06,-0.13 -0.12,-0.25 -0.3,-0.28 -0.17,-0.03 -0.29,0.05 -0.41,0.14 -0.12,0.09 -0.25,0.18 -0.42,0.13 -0.18,-0.04 -0.23,-0.18 -0.28,-0.3 -0.05,-0.13 -0.1,-0.26 -0.27,-0.31 -0.17,-0.05 -0.29,0.02 -0.41,0.1 -0.13,0.08 -0.25,0.15 -0.42,0.09 -0.17,-0.06 -0.21,-0.2 -0.25,-0.33 -0.04,-0.16 -0.09,-0.27 -0.24,-0.33 -0.17,-0.07 -0.29,0 -0.42,0.06 -0.13,0.06 -0.26,0.12 -0.42,0.05 -0.16,-0.08 -0.19,-0.21 -0.22,-0.35 -0.02,-0.11 -0.05,-0.2 -0.1,-0.27 -2,3.75 -4.29,7.26 -6.83,10.49 0.1,0.12 0.14,0.24 0.19,0.37 0.07,0.2 0.13,0.35 0.37,0.52 0.24,0.16 0.41,0.17 0.63,0.17 0.19,0 0.38,-0.01 0.64,0.15 0.25,0.15 0.32,0.32 0.4,0.49 0.08,0.17 0.15,0.34 0.41,0.48 0.25,0.14 0.42,0.13 0.64,0.1 0.21,-0.03 0.39,-0.05 0.65,0.08 0.27,0.13 0.35,0.28 0.44,0.45 0.09,0.17 0.17,0.32 0.45,0.44 0.28,0.12 0.47,0.08 0.66,0.03 0.2,-0.05 0.38,-0.09 0.66,0.01 0.28,0.1 0.37,0.25 0.47,0.41 0.1,0.16 0.2,0.3 0.49,0.4 0.29,0.09 0.47,0.03 0.66,-0.03 0.2,-0.07 0.38,-0.13 0.67,-0.06 0.29,0.07 0.4,0.21 0.51,0.36 0.12,0.15 0.22,0.29 0.52,0.35 0.3,0.06 0.48,-0.02 0.67,-0.1 0.2,-0.09 0.38,-0.17 0.68,-0.12 0.3,0.05 0.43,0.18 0.55,0.31 0.12,0.13 0.24,0.26 0.56,0.3 0.31,0.03 0.49,-0.07 0.68,-0.17 0.19,-0.11 0.36,-0.21 0.67,-0.19 z"
             id="path2208"
             style="fill:#ffc75a;stroke-width:0.0720473" />
        </g>
        <path
           class="cls-116"
           d="m 780.42,107.64 c -0.31,1.49 -2.4,2.51 -4.49,1.87 -2.08,-0.63 -3.04,-2.44 -2.36,-3.69 0.69,-1.26 2.5,-1.74 4.2,-1.36 1.7,0.4 2.96,1.67 2.64,3.17 z"
           id="path2209"
           style="fill:#ffc75a;stroke-width:0.0720473" />
        <path
           class="cls-190"
           d="m 777.12,107.69 c 0.03,-0.08 0.02,-0.16 -0.03,-0.23 -0.05,-0.07 -0.14,-0.14 -0.28,-0.22 -0.14,-0.08 -0.25,-0.16 -0.35,-0.24 -0.09,-0.07 -0.17,-0.15 -0.23,-0.22 -0.06,-0.08 -0.09,-0.16 -0.11,-0.24 -0.01,-0.09 0,-0.18 0.04,-0.28 0.07,-0.17 0.2,-0.29 0.38,-0.36 0.19,-0.07 0.4,-0.08 0.65,-0.04 0.04,-0.11 0.08,-0.22 0.12,-0.33 0.11,0.03 0.21,0.05 0.32,0.08 -0.04,0.11 -0.08,0.23 -0.11,0.34 0.23,0.08 0.39,0.2 0.49,0.36 0.1,0.16 0.11,0.34 0.05,0.55 -0.2,-0.04 -0.41,-0.09 -0.61,-0.14 0.04,-0.13 0.04,-0.23 0,-0.31 -0.05,-0.08 -0.13,-0.13 -0.24,-0.16 -0.11,-0.03 -0.21,-0.03 -0.29,0 -0.08,0.03 -0.13,0.09 -0.17,0.17 -0.03,0.08 -0.02,0.15 0.02,0.21 0.04,0.06 0.14,0.14 0.29,0.24 0.15,0.09 0.27,0.17 0.36,0.24 0.09,0.07 0.17,0.14 0.23,0.21 0.06,0.07 0.09,0.15 0.11,0.23 0.02,0.08 0,0.17 -0.02,0.26 -0.06,0.18 -0.18,0.31 -0.38,0.38 -0.19,0.07 -0.43,0.09 -0.71,0.03 -0.04,0.1 -0.08,0.2 -0.12,0.31 -0.12,-0.03 -0.23,-0.07 -0.35,-0.1 0.04,-0.1 0.08,-0.2 0.12,-0.3 -0.29,-0.11 -0.49,-0.25 -0.6,-0.43 -0.11,-0.18 -0.12,-0.37 -0.03,-0.57 0.2,0.07 0.4,0.13 0.61,0.19 -0.05,0.12 -0.04,0.23 0.01,0.31 0.06,0.09 0.16,0.15 0.31,0.2 0.13,0.03 0.24,0.04 0.33,0 0.09,-0.03 0.15,-0.08 0.18,-0.17 z"
           id="path2210"
           style="fill:#f7f8fa;stroke-width:0.0720473" />
        <path
           class="cls-116"
           d="m 783.33,101.49 c -3.11,0.22 -6.1,-0.37 -8.75,-1.64 0.12,-0.23 0.23,-0.45 0.35,-0.68 2.57,1.21 5.46,1.75 8.47,1.5 -0.02,0.28 -0.04,0.55 -0.07,0.83 z"
           id="path2211"
           style="fill:#ffc75a;stroke-width:0.0720473" />
        <path
           class="cls-116"
           d="m 783.17,103.14 c -3.32,0.18 -6.5,-0.52 -9.31,-1.94 0.12,-0.22 0.24,-0.45 0.36,-0.67 2.73,1.35 5.81,1.99 9.03,1.79 -0.03,0.27 -0.05,0.55 -0.08,0.82 z"
           id="path2212"
           style="fill:#ffc75a;stroke-width:0.0720473" />
      </g>
      <g
         id="g2218"
         style="stroke-width:0.0720473">
        <g
           id="g2214"
           style="stroke-width:0.0720473">
          <path
             class="cls-160"
             d="m 871.95,101.38 c -0.09,3.87 0.14,7.74 0.69,11.57 0.16,0 0.25,0.06 0.39,0.16 0.16,0.11 0.36,0.24 0.71,0.24 0.35,0 0.5,-0.14 0.62,-0.24 0.11,-0.1 0.18,-0.15 0.34,-0.16 0.16,0 0.24,0.04 0.39,0.12 0.16,0.09 0.37,0.2 0.71,0.17 0.34,-0.04 0.48,-0.19 0.58,-0.3 0.1,-0.11 0.16,-0.17 0.32,-0.19 0.15,-0.02 0.24,0.01 0.39,0.08 0.17,0.07 0.37,0.17 0.7,0.1 0.33,-0.07 0.45,-0.23 0.55,-0.36 0.09,-0.12 0.14,-0.18 0.29,-0.22 0.15,-0.04 0.24,-0.01 0.39,0.04 0.17,0.06 0.38,0.13 0.7,0.03 0.32,-0.1 0.43,-0.27 0.51,-0.41 0.08,-0.12 0.13,-0.19 0.27,-0.25 0.14,-0.05 0.23,-0.03 0.39,0 0.17,0.04 0.38,0.09 0.69,-0.04 0.31,-0.13 0.4,-0.31 0.48,-0.45 0.07,-0.13 0.11,-0.2 0.25,-0.27 0.14,-0.07 0.23,-0.06 0.38,-0.04 0.17,0.02 0.38,0.05 0.67,-0.11 0.29,-0.16 0.37,-0.35 0.43,-0.5 0.06,-0.14 0.09,-0.21 0.22,-0.29 0.13,-0.08 0.22,-0.08 0.38,-0.08 0.16,0 0.38,0 0.65,-0.18 0.27,-0.19 0.34,-0.38 0.39,-0.53 0.05,-0.14 0.08,-0.22 0.2,-0.31 -2.13,-2.66 -4.05,-5.55 -5.72,-8.65 -0.17,0.09 -0.2,0.24 -0.22,0.35 -0.03,0.11 -0.04,0.17 -0.12,0.21 -0.08,0.04 -0.14,0.02 -0.25,-0.04 -0.11,-0.06 -0.25,-0.13 -0.43,-0.06 -0.17,0.07 -0.22,0.22 -0.25,0.33 -0.03,0.11 -0.06,0.17 -0.14,0.2 -0.09,0.03 -0.14,0 -0.25,-0.06 -0.11,-0.07 -0.25,-0.15 -0.43,-0.1 -0.18,0.05 -0.24,0.2 -0.28,0.31 -0.04,0.11 -0.07,0.16 -0.16,0.18 -0.09,0.02 -0.15,-0.01 -0.24,-0.09 -0.11,-0.08 -0.24,-0.18 -0.43,-0.14 -0.19,0.04 -0.26,0.17 -0.31,0.28 -0.05,0.1 -0.08,0.16 -0.17,0.17 -0.09,0.01 -0.15,-0.03 -0.24,-0.11 -0.1,-0.09 -0.23,-0.2 -0.42,-0.18 -0.2,0.02 -0.27,0.15 -0.34,0.26 -0.06,0.1 -0.09,0.15 -0.19,0.15 -0.09,0 -0.15,-0.04 -0.24,-0.13 -0.1,-0.1 -0.22,-0.22 -0.42,-0.23 -0.2,0 -0.29,0.12 -0.36,0.22 -0.07,0.09 -0.11,0.14 -0.21,0.14 -0.1,0 -0.15,-0.06 -0.23,-0.16 -0.09,-0.11 -0.2,-0.25 -0.41,-0.27 -0.2,-0.02 -0.3,0.09 -0.38,0.19 -0.08,0.09 -0.12,0.13 -0.22,0.12 -0.1,-0.01 -0.14,-0.07 -0.23,-0.18 -0.08,-0.12 -0.19,-0.27 -0.39,-0.31 z"
             id="path2213"
             style="fill:#ffffff;stroke-width:0.0720473" />
          <path
             class="cls-116"
             d="m 872.9,113.19 c -0.15,-0.1 -0.17,-0.11 -0.24,-0.11 -0.07,0 -0.13,0 -0.2,-0.01 -0.54,-3.92 -0.75,-7.89 -0.62,-11.85 0.04,0 0.08,0.02 0.12,0.02 0.26,0.05 0.4,0.25 0.48,0.37 0.08,0.11 0.1,0.12 0.14,0.13 0.04,0 0.06,0 0.13,-0.09 0.09,-0.1 0.21,-0.24 0.47,-0.22 0.25,0.03 0.39,0.2 0.49,0.32 0.08,0.1 0.1,0.11 0.14,0.11 0.04,0 0.06,0 0.12,-0.09 0.07,-0.1 0.19,-0.27 0.44,-0.26 0.25,0 0.4,0.16 0.5,0.27 0.09,0.09 0.1,0.1 0.14,0.09 0.04,0 0.05,0 0.11,-0.11 0.07,-0.11 0.17,-0.28 0.41,-0.3 0.24,-0.02 0.4,0.12 0.51,0.22 0.09,0.08 0.11,0.09 0.15,0.08 0.04,0 0.05,-0.02 0.1,-0.12 0.06,-0.12 0.14,-0.29 0.38,-0.33 0.23,-0.04 0.4,0.08 0.52,0.16 0.1,0.07 0.11,0.07 0.15,0.06 0.04,0 0.05,-0.02 0.09,-0.12 0.05,-0.12 0.12,-0.3 0.35,-0.37 0.23,-0.07 0.4,0.04 0.52,0.11 0.1,0.06 0.12,0.06 0.15,0.05 0.04,-0.01 0.05,-0.03 0.08,-0.13 0.03,-0.12 0.09,-0.31 0.31,-0.4 0.22,-0.09 0.41,0 0.52,0.06 0.1,0.05 0.12,0.05 0.15,0.03 0.03,-0.02 0.04,-0.03 0.07,-0.14 0.03,-0.12 0.07,-0.32 0.28,-0.43 0.03,-0.02 0.06,-0.03 0.09,-0.05 1.72,3.15 3.7,6.09 5.9,8.78 -0.05,0.04 -0.1,0.08 -0.15,0.12 -0.05,0.04 -0.06,0.06 -0.11,0.2 -0.05,0.15 -0.13,0.41 -0.48,0.65 -0.35,0.24 -0.63,0.23 -0.8,0.23 -0.15,0 -0.18,0 -0.24,0.03 -0.05,0.03 -0.07,0.05 -0.13,0.19 -0.07,0.16 -0.17,0.39 -0.53,0.6 -0.37,0.21 -0.65,0.17 -0.82,0.14 -0.16,-0.02 -0.18,-0.02 -0.24,0 -0.06,0.03 -0.07,0.04 -0.14,0.18 -0.08,0.15 -0.2,0.38 -0.58,0.54 -0.38,0.17 -0.66,0.1 -0.84,0.06 -0.16,-0.04 -0.18,-0.04 -0.24,-0.02 -0.06,0.02 -0.08,0.04 -0.16,0.17 -0.09,0.14 -0.23,0.36 -0.63,0.49 -0.4,0.13 -0.67,0.04 -0.85,-0.03 -0.16,-0.05 -0.18,-0.06 -0.24,-0.04 -0.06,0.02 -0.08,0.03 -0.17,0.15 -0.1,0.13 -0.26,0.34 -0.67,0.43 -0.41,0.09 -0.68,-0.03 -0.86,-0.11 -0.15,-0.07 -0.18,-0.07 -0.24,-0.06 -0.06,0 -0.09,0.02 -0.19,0.13 -0.1,0.12 -0.28,0.32 -0.72,0.37 -0.43,0.05 -0.69,-0.1 -0.87,-0.2 -0.15,-0.09 -0.17,-0.09 -0.24,-0.09 -0.07,0 -0.09,0.02 -0.2,0.12 -0.12,0.11 -0.32,0.29 -0.75,0.29 -0.44,0 -0.69,-0.17 -0.86,-0.29 z m 2.31,-0.22 c 0.15,0.08 0.3,0.16 0.55,0.14 0.26,-0.03 0.36,-0.14 0.45,-0.24 0.1,-0.11 0.2,-0.21 0.44,-0.25 0.24,-0.04 0.39,0.03 0.55,0.1 0.15,0.07 0.3,0.13 0.54,0.08 0.24,-0.05 0.33,-0.16 0.42,-0.28 0.09,-0.12 0.18,-0.23 0.41,-0.29 0.23,-0.06 0.38,0 0.55,0.05 0.16,0.05 0.3,0.1 0.54,0.03 0.23,-0.07 0.31,-0.19 0.4,-0.32 0.08,-0.13 0.16,-0.25 0.38,-0.33 0.23,-0.08 0.37,-0.05 0.53,0 0.16,0.04 0.31,0.07 0.54,-0.03 0.22,-0.1 0.29,-0.22 0.37,-0.36 0.07,-0.13 0.14,-0.26 0.35,-0.36 0.21,-0.1 0.36,-0.08 0.53,-0.06 0.18,0.02 0.32,0.03 0.52,-0.08 0.21,-0.12 0.27,-0.25 0.33,-0.39 0.06,-0.14 0.12,-0.27 0.32,-0.4 0.21,-0.13 0.36,-0.12 0.52,-0.12 0.18,0 0.32,0 0.51,-0.13 0.19,-0.13 0.24,-0.26 0.3,-0.42 0.03,-0.1 0.07,-0.2 0.15,-0.3 -2.06,-2.62 -3.92,-5.47 -5.54,-8.51 -0.05,0.06 -0.07,0.13 -0.08,0.22 -0.03,0.11 -0.05,0.22 -0.18,0.28 -0.13,0.06 -0.24,0.02 -0.34,-0.04 -0.1,-0.05 -0.2,-0.1 -0.34,-0.05 -0.12,0.05 -0.16,0.14 -0.19,0.27 -0.03,0.11 -0.07,0.22 -0.21,0.27 -0.14,0.05 -0.24,-0.01 -0.34,-0.07 -0.1,-0.06 -0.2,-0.12 -0.34,-0.08 -0.14,0.04 -0.18,0.14 -0.22,0.25 -0.04,0.1 -0.08,0.21 -0.23,0.25 -0.14,0.04 -0.24,-0.04 -0.34,-0.11 -0.1,-0.07 -0.19,-0.14 -0.33,-0.12 -0.14,0.03 -0.19,0.12 -0.24,0.23 -0.05,0.1 -0.1,0.2 -0.25,0.23 -0.15,0.02 -0.24,-0.06 -0.34,-0.14 -0.1,-0.08 -0.18,-0.16 -0.33,-0.15 -0.15,0.01 -0.2,0.11 -0.26,0.21 -0.06,0.1 -0.12,0.19 -0.27,0.2 -0.15,0 -0.24,-0.08 -0.33,-0.17 -0.09,-0.09 -0.18,-0.18 -0.33,-0.19 -0.14,0 -0.2,0.07 -0.28,0.18 -0.06,0.09 -0.13,0.18 -0.29,0.18 -0.16,0 -0.24,-0.11 -0.33,-0.21 -0.09,-0.1 -0.17,-0.2 -0.32,-0.21 -0.15,-0.02 -0.22,0.07 -0.3,0.16 -0.08,0.09 -0.15,0.17 -0.31,0.15 -0.16,-0.02 -0.23,-0.13 -0.32,-0.24 -0.06,-0.09 -0.12,-0.16 -0.19,-0.2 -0.05,3.78 0.2,7.56 0.75,11.3 0.14,0.04 0.25,0.11 0.35,0.18 0.15,0.1 0.29,0.19 0.54,0.19 0.26,0 0.36,-0.1 0.48,-0.2 0.12,-0.1 0.22,-0.19 0.47,-0.21 0.25,-0.01 0.39,0.07 0.54,0.15 z"
             id="path2214"
             style="fill:#ffc75a;stroke-width:0.0720473" />
        </g>
        <path
           class="cls-116"
           d="m 875.55,109.65 c 0.25,1.21 1.95,2.03 3.64,1.52 1.69,-0.51 2.47,-1.98 1.91,-2.99 -0.56,-1.02 -2.02,-1.41 -3.41,-1.1 -1.38,0.32 -2.4,1.36 -2.14,2.57 z"
           id="path2215"
           style="fill:#ffc75a;stroke-width:0.0720473" />
        <path
           class="cls-190"
           d="m 878.94,109.44 c -0.02,-0.07 -0.07,-0.11 -0.13,-0.13 -0.06,-0.02 -0.16,-0.02 -0.29,0 -0.13,0.02 -0.24,0.03 -0.34,0.03 -0.1,0 -0.18,0 -0.26,-0.02 -0.08,-0.02 -0.14,-0.05 -0.19,-0.1 -0.05,-0.05 -0.09,-0.11 -0.12,-0.19 -0.05,-0.14 -0.03,-0.28 0.06,-0.42 0.08,-0.14 0.21,-0.26 0.39,-0.36 -0.03,-0.09 -0.07,-0.18 -0.1,-0.27 0.08,-0.04 0.16,-0.08 0.24,-0.12 0.03,0.09 0.07,0.18 0.1,0.27 0.19,-0.07 0.35,-0.08 0.49,-0.03 0.14,0.05 0.25,0.15 0.31,0.32 -0.15,0.08 -0.3,0.15 -0.45,0.23 -0.04,-0.1 -0.09,-0.16 -0.16,-0.19 -0.07,-0.02 -0.15,-0.02 -0.23,0.02 -0.08,0.04 -0.14,0.09 -0.18,0.15 -0.03,0.06 -0.04,0.12 -0.01,0.19 0.02,0.06 0.06,0.1 0.12,0.12 0.06,0.02 0.16,0.02 0.3,0 0.14,-0.02 0.26,-0.03 0.35,-0.03 0.09,0 0.18,0 0.25,0.02 0.07,0.02 0.14,0.05 0.19,0.09 0.05,0.04 0.09,0.1 0.12,0.18 0.05,0.14 0.04,0.29 -0.04,0.43 -0.08,0.15 -0.23,0.28 -0.43,0.39 0.03,0.08 0.06,0.17 0.08,0.25 -0.09,0.04 -0.18,0.08 -0.27,0.12 -0.03,-0.08 -0.05,-0.17 -0.08,-0.25 -0.24,0.08 -0.44,0.09 -0.59,0.04 -0.16,-0.05 -0.26,-0.17 -0.31,-0.34 0.16,-0.06 0.32,-0.13 0.48,-0.19 0.03,0.1 0.09,0.16 0.17,0.19 0.08,0.03 0.18,0.01 0.3,-0.04 0.1,-0.04 0.17,-0.1 0.21,-0.16 0.04,-0.07 0.05,-0.13 0.03,-0.2 z"
           id="path2216"
           style="fill:#f7f8fa;stroke-width:0.0720473" />
        <path
           class="cls-116"
           d="m 873.2,104.66 c 2.53,0.18 4.95,-0.3 7.1,-1.33 -0.09,-0.18 -0.19,-0.37 -0.28,-0.55 -2.09,0.98 -4.43,1.42 -6.87,1.22 0.02,0.22 0.03,0.45 0.05,0.67 z"
           id="path2217"
           style="fill:#ffc75a;stroke-width:0.0720473" />
        <path
           class="cls-116"
           d="m 873.32,106 c 2.7,0.14 5.27,-0.42 7.55,-1.57 -0.1,-0.18 -0.2,-0.36 -0.29,-0.55 -2.22,1.1 -4.71,1.61 -7.32,1.45 0.02,0.22 0.04,0.45 0.07,0.67 z"
           id="path2218"
           style="fill:#ffc75a;stroke-width:0.0720473" />
      </g>
      <g
         class="cls-238"
         id="g2241"
         style="opacity:0.9;stroke-width:0.0720473">
        <path
           class="cls-258"
           d="m 820.09,164.77 -35.62,-5.32 c -1.59,-0.24 -2.75,-2.08 -2.6,-4.11 l 1.1,-15.02 c 0.14,-1.98 1.53,-3.54 3.11,-3.48 l 35.24,1.23 c 2.23,0.08 3.98,2.09 3.88,4.5 l -0.79,18.31 c -0.11,2.48 -2.06,4.22 -4.32,3.89 z"
           id="path2219"
           style="fill:#f7b320;stroke-width:0.0720473" />
        <polygon
           class="cls-211"
           points="785.6,140.77 796.63,141.37 795.59,157.81 784.49,156.33 "
           id="polygon2219"
           style="fill:url(#radial-gradient-66);stroke-width:0.0720473" />
        <g
           id="g2222"
           style="stroke-width:0.0720473">
          <path
             class="cls-91"
             d="m 801.78,144.09 -1.03,-0.24 -0.39,-1.13 c -0.05,-0.15 -0.23,-0.16 -0.3,-0.02 l -0.52,1.07 -1.03,0.11 c -0.14,0.01 -0.2,0.21 -0.11,0.33 l 0.68,0.9 -0.25,1.19 c -0.03,0.16 0.1,0.29 0.23,0.23 l 0.95,-0.5 0.89,0.64 c 0.12,0.09 0.27,-0.03 0.26,-0.19 l -0.1,-1.23 0.8,-0.81 c 0.11,-0.11 0.06,-0.31 -0.07,-0.34 z"
             id="path2220"
             style="fill:#fee27f;stroke-width:0.0720473" />
          <path
             class="cls-185"
             d="m 799.42,145.12 c 0.01,-0.12 0.02,-0.25 -0.03,-0.35 -0.02,-0.05 -0.06,-0.09 -0.09,-0.12 -0.03,-0.02 -0.05,-0.05 -0.08,-0.07 -0.03,-0.03 -0.06,-0.05 -0.09,-0.07 -0.06,-0.04 -0.13,-0.08 -0.19,-0.11 -0.02,0 -0.05,-0.02 -0.07,-0.03 -0.02,0 -0.05,-0.02 -0.07,-0.02 -0.11,-0.03 -0.22,-0.05 -0.32,-0.08 0,0 -0.01,0 -0.02,0 l 0.64,0.84 -0.25,1.19 c -0.02,0.1 0.03,0.19 0.09,0.23 0.01,-0.02 0.03,-0.05 0.04,-0.07 0.14,-0.26 0.27,-0.54 0.36,-0.84 0.04,-0.16 0.07,-0.32 0.09,-0.48 z"
             id="path2221"
             style="fill:#f27e0a;stroke-width:0.0720473" />
          <path
             class="cls-88"
             d="m 800.48,143.88 c 0.01,0.05 0.03,0.11 0.06,0.15 0.03,0.04 0.07,0.06 0.11,0.07 0.1,0.03 0.21,0.03 0.31,0.03 0.13,0 0.26,0.01 0.39,0.02 0.18,0.01 0.36,0.02 0.54,0.03 -0.02,-0.05 -0.06,-0.09 -0.11,-0.1 l -1.03,-0.24 -0.39,-1.13 c -0.02,-0.07 -0.07,-0.1 -0.12,-0.12 0.02,0.32 0.22,1.17 0.24,1.28 z"
             id="path2222"
             style="fill:#ffce00;stroke-width:0.0720473" />
        </g>
        <g
           id="g2225"
           style="stroke-width:0.0720473">
          <path
             class="cls-91"
             d="m 806.47,144.39 -1.07,-0.25 -0.42,-1.15 c -0.06,-0.15 -0.24,-0.16 -0.31,-0.02 l -0.54,1.09 -1.07,0.11 c -0.14,0.01 -0.21,0.21 -0.11,0.33 l 0.71,0.92 -0.25,1.22 c -0.03,0.16 0.11,0.3 0.24,0.23 l 0.99,-0.51 0.93,0.66 c 0.12,0.09 0.28,-0.03 0.27,-0.19 l -0.11,-1.26 0.83,-0.82 c 0.11,-0.11 0.07,-0.32 -0.08,-0.35 z"
             id="path2223"
             style="fill:#fee27f;stroke-width:0.0720473" />
          <path
             class="cls-185"
             d="m 804,145.45 c 0.01,-0.12 0.02,-0.25 -0.03,-0.36 -0.02,-0.05 -0.06,-0.09 -0.1,-0.12 -0.03,-0.02 -0.06,-0.05 -0.08,-0.07 -0.03,-0.03 -0.06,-0.05 -0.1,-0.08 -0.06,-0.05 -0.13,-0.09 -0.2,-0.12 -0.02,0 -0.05,-0.02 -0.07,-0.03 -0.02,0 -0.05,-0.02 -0.07,-0.02 -0.11,-0.03 -0.23,-0.05 -0.34,-0.08 0,0 -0.01,0 -0.02,0 l 0.67,0.86 -0.25,1.22 c -0.02,0.1 0.03,0.2 0.1,0.23 0.01,-0.02 0.03,-0.05 0.04,-0.07 0.15,-0.27 0.28,-0.55 0.37,-0.85 0.04,-0.16 0.08,-0.32 0.09,-0.49 z"
             id="path2224"
             style="fill:#f27e0a;stroke-width:0.0720473" />
          <path
             class="cls-88"
             d="m 805.11,144.18 c 0.01,0.05 0.03,0.11 0.06,0.15 0.03,0.04 0.07,0.06 0.11,0.07 0.11,0.03 0.22,0.03 0.33,0.03 0.14,0 0.27,0.01 0.41,0.02 0.19,0.01 0.38,0.02 0.57,0.03 -0.02,-0.05 -0.06,-0.09 -0.12,-0.1 l -1.07,-0.25 -0.42,-1.15 c -0.02,-0.07 -0.07,-0.11 -0.13,-0.12 0.02,0.33 0.23,1.19 0.26,1.31 z"
             id="path2225"
             style="fill:#ffce00;stroke-width:0.0720473" />
        </g>
        <g
           id="g2228"
           style="stroke-width:0.0720473">
          <path
             class="cls-91"
             d="m 811.36,144.72 -1.12,-0.26 -0.44,-1.18 c -0.06,-0.16 -0.25,-0.17 -0.33,-0.02 l -0.56,1.11 -1.12,0.11 c -0.15,0.01 -0.22,0.22 -0.12,0.34 l 0.75,0.94 -0.26,1.24 c -0.03,0.17 0.11,0.31 0.25,0.24 l 1.03,-0.52 0.97,0.68 c 0.13,0.09 0.29,-0.03 0.28,-0.2 l -0.13,-1.28 0.87,-0.84 c 0.12,-0.11 0.07,-0.33 -0.08,-0.36 z"
             id="path2226"
             style="fill:#fee27f;stroke-width:0.0720473" />
          <path
             class="cls-185"
             d="m 808.79,145.79 c 0.01,-0.12 0.02,-0.26 -0.04,-0.36 -0.03,-0.05 -0.06,-0.09 -0.1,-0.13 -0.03,-0.03 -0.06,-0.05 -0.09,-0.07 -0.03,-0.03 -0.07,-0.05 -0.1,-0.08 -0.07,-0.05 -0.14,-0.09 -0.21,-0.12 -0.03,-0.01 -0.05,-0.02 -0.07,-0.03 -0.03,0 -0.05,-0.02 -0.08,-0.02 -0.12,-0.03 -0.24,-0.05 -0.35,-0.09 0,0 -0.01,0 -0.02,0 l 0.7,0.88 -0.26,1.24 c -0.02,0.1 0.03,0.2 0.1,0.24 0.01,-0.03 0.03,-0.05 0.04,-0.08 0.15,-0.27 0.29,-0.56 0.38,-0.87 0.05,-0.16 0.08,-0.33 0.09,-0.5 z"
             id="path2227"
             style="fill:#f27e0a;stroke-width:0.0720473" />
          <path
             class="cls-88"
             d="m 809.94,144.5 c 0.01,0.05 0.03,0.11 0.06,0.16 0.03,0.04 0.08,0.06 0.12,0.08 0.11,0.04 0.23,0.03 0.34,0.03 0.14,0 0.28,0.01 0.43,0.02 0.2,0.01 0.4,0.02 0.59,0.03 -0.02,-0.05 -0.07,-0.09 -0.13,-0.1 l -1.12,-0.26 -0.44,-1.18 c -0.03,-0.07 -0.08,-0.11 -0.13,-0.12 0.02,0.34 0.25,1.22 0.27,1.34 z"
             id="path2228"
             style="fill:#ffce00;stroke-width:0.0720473" />
        </g>
        <g
           id="g2231"
           style="stroke-width:0.0720473">
          <path
             class="cls-91"
             d="m 816.59,145.06 -1.17,-0.27 -0.47,-1.21 c -0.06,-0.16 -0.26,-0.17 -0.34,-0.02 l -0.58,1.14 -1.17,0.11 c -0.15,0.01 -0.23,0.22 -0.12,0.35 l 0.79,0.97 -0.26,1.27 c -0.04,0.17 0.12,0.31 0.26,0.24 l 1.07,-0.53 1.02,0.69 c 0.14,0.09 0.31,-0.03 0.29,-0.2 l -0.14,-1.31 0.9,-0.86 c 0.12,-0.11 0.07,-0.33 -0.09,-0.37 z"
             id="path2229"
             style="fill:#fee27f;stroke-width:0.0720473" />
          <path
             class="cls-185"
             d="m 813.91,146.16 c 0.01,-0.12 0.02,-0.26 -0.04,-0.37 -0.03,-0.05 -0.07,-0.09 -0.11,-0.13 -0.03,-0.03 -0.06,-0.05 -0.09,-0.08 -0.03,-0.03 -0.07,-0.06 -0.11,-0.08 -0.07,-0.05 -0.15,-0.09 -0.22,-0.12 -0.03,-0.01 -0.05,-0.02 -0.08,-0.03 -0.03,0 -0.05,-0.02 -0.08,-0.02 -0.12,-0.03 -0.25,-0.05 -0.37,-0.09 0,0 -0.01,0 -0.02,0 l 0.74,0.9 -0.26,1.27 c -0.02,0.11 0.03,0.2 0.11,0.24 0.02,-0.03 0.03,-0.05 0.05,-0.08 0.16,-0.28 0.3,-0.57 0.39,-0.89 0.05,-0.17 0.08,-0.34 0.09,-0.51 z"
             id="path2230"
             style="fill:#f27e0a;stroke-width:0.0720473" />
          <path
             class="cls-88"
             d="m 815.1,144.84 c 0.01,0.06 0.03,0.12 0.07,0.16 0.03,0.04 0.08,0.06 0.13,0.08 0.12,0.04 0.24,0.03 0.36,0.03 0.15,0 0.3,0.02 0.45,0.02 0.21,0.01 0.41,0.02 0.62,0.03 -0.03,-0.05 -0.07,-0.09 -0.13,-0.11 l -1.17,-0.27 -0.47,-1.21 c -0.03,-0.07 -0.08,-0.11 -0.14,-0.12 0.02,0.34 0.26,1.25 0.29,1.37 z"
             id="path2231"
             style="fill:#ffce00;stroke-width:0.0720473" />
        </g>
        <g
           id="g2234"
           style="stroke-width:0.0720473">
          <path
             class="cls-91"
             d="m 821.95,145.42 -1.23,-0.27 -0.49,-1.24 c -0.07,-0.16 -0.28,-0.18 -0.36,-0.02 l -0.6,1.16 -1.22,0.11 c -0.16,0.01 -0.24,0.23 -0.13,0.36 l 0.83,0.99 -0.27,1.3 c -0.04,0.17 0.13,0.32 0.28,0.25 l 1.12,-0.54 1.07,0.71 c 0.14,0.1 0.32,-0.03 0.3,-0.21 l -0.15,-1.35 0.94,-0.88 c 0.13,-0.12 0.07,-0.34 -0.1,-0.38 z"
             id="path2232"
             style="fill:#fee27f;stroke-width:0.0720473" />
          <path
             class="cls-185"
             d="m 819.15,146.53 c 0,-0.13 0.02,-0.27 -0.04,-0.38 -0.03,-0.05 -0.07,-0.1 -0.12,-0.13 -0.03,-0.03 -0.07,-0.05 -0.1,-0.08 -0.04,-0.03 -0.07,-0.06 -0.11,-0.08 -0.07,-0.05 -0.15,-0.09 -0.23,-0.12 -0.03,-0.01 -0.05,-0.02 -0.08,-0.03 -0.03,0 -0.06,-0.02 -0.08,-0.03 -0.13,-0.03 -0.26,-0.05 -0.39,-0.09 0,0 -0.01,0 -0.02,0 l 0.78,0.92 -0.27,1.3 c -0.02,0.11 0.03,0.21 0.12,0.25 0.02,-0.03 0.03,-0.05 0.05,-0.08 0.17,-0.29 0.32,-0.59 0.41,-0.91 0.05,-0.17 0.08,-0.35 0.09,-0.52 z"
             id="path2233"
             style="fill:#f27e0a;stroke-width:0.0720473" />
          <path
             class="cls-88"
             d="m 820.39,145.18 c 0.01,0.06 0.03,0.12 0.07,0.16 0.03,0.04 0.08,0.07 0.13,0.08 0.12,0.04 0.25,0.03 0.38,0.04 0.16,0 0.31,0.02 0.47,0.03 0.22,0.01 0.43,0.02 0.65,0.04 -0.03,-0.05 -0.07,-0.1 -0.14,-0.11 l -1.23,-0.27 -0.49,-1.24 c -0.03,-0.07 -0.09,-0.11 -0.15,-0.13 0.02,0.35 0.28,1.28 0.31,1.41 z"
             id="path2234"
             style="fill:#ffce00;stroke-width:0.0720473" />
        </g>
        <path
           class="cls-160"
           d="m 794.99,153.04 c -0.15,0.2 -0.31,0.38 -0.47,0.55 -1.17,1.19 -2.69,1.82 -4.29,1.63 l -0.32,-0.04 c -1.79,-0.22 -3.3,-1.45 -4.19,-3.17 1.02,-1.59 2.61,-2.59 4.38,-2.56 -1.18,-0.33 -1.99,-1.68 -1.89,-3.21 0.12,-1.67 1.3,-2.95 2.66,-2.86 1.38,0.09 2.42,1.55 2.3,3.26 -0.1,1.57 -1.13,2.77 -2.35,2.87 1.79,0.31 3.31,1.65 4.18,3.52 z"
           id="path2235"
           style="fill:#ffffff;stroke-width:0.0720473" />
        <g
           class="cls-104"
           id="g2240"
           style="mix-blend-mode:multiply;stroke-width:0.0720473">
          <path
             class="cls-117"
             d="m 810.69,150.23 -12.15,-1.1 c -0.39,-0.04 -0.73,0.31 -0.76,0.78 v 0 c -0.03,0.47 0.26,0.88 0.66,0.92 l 12.16,1.2 c 0.44,0.04 0.82,-0.33 0.85,-0.83 v 0 c 0.03,-0.5 -0.31,-0.94 -0.75,-0.98 z"
             id="path2236"
             style="fill:#e0e2e5;stroke-width:0.0720473" />
          <path
             class="cls-117"
             d="m 802.48,152.87 -4.14,-0.44 c -0.39,-0.04 -0.73,0.31 -0.76,0.78 -0.03,0.47 0.26,0.89 0.66,0.93 l 4.14,0.47 c 0.41,0.05 0.77,-0.31 0.8,-0.79 0.03,-0.48 -0.28,-0.91 -0.69,-0.95 z"
             id="path2237"
             style="fill:#e0e2e5;stroke-width:0.0720473" />
          <path
             class="cls-117"
             d="m 809.46,153.61 -4.41,-0.47 c -0.42,-0.04 -0.78,0.31 -0.81,0.8 -0.03,0.49 0.29,0.92 0.71,0.97 l 4.41,0.51 c 0.44,0.05 0.82,-0.31 0.84,-0.81 0.03,-0.5 -0.31,-0.94 -0.75,-0.99 z"
             id="path2238"
             style="fill:#e0e2e5;stroke-width:0.0720473" />
          <path
             class="cls-117"
             d="m 817.29,154.44 -4.72,-0.5 c -0.45,-0.05 -0.83,0.32 -0.86,0.82 -0.03,0.5 0.31,0.95 0.76,1 l 4.72,0.54 c 0.47,0.05 0.87,-0.32 0.9,-0.84 0.02,-0.52 -0.34,-0.98 -0.81,-1.03 z"
             id="path2239"
             style="fill:#e0e2e5;stroke-width:0.0720473" />
          <path
             class="cls-117"
             d="m 821.11,151.17 -7.85,-0.71 c -0.45,-0.04 -0.83,0.33 -0.86,0.83 v 0 c -0.03,0.5 0.32,0.94 0.77,0.99 l 7.86,0.78 c 0.48,0.05 0.9,-0.34 0.92,-0.86 v 0 c 0.02,-0.52 -0.35,-0.98 -0.83,-1.03 z"
             id="path2240"
             style="fill:#e0e2e5;stroke-width:0.0720473" />
        </g>
      </g>
    </g>
  </g>
</svg>
